<svg xmlns="http://www.w3.org/2000/svg" xmlns:xlink="http://www.w3.org/1999/xlink" width="500" zoomAndPan="magnify" viewBox="0 0 375 374.999991" height="500" preserveAspectRatio="xMidYMid meet" version="1.0"><defs><clipPath id="33a7cb05c0"><path d="M 31 31.238281 L 352 31.238281 L 352 124 L 31 124 Z M 31 31.238281 " clip-rule="nonzero"/></clipPath><clipPath id="432f62e32d"><path d="M 52 329 L 323 329 L 323 343.988281 L 52 343.988281 Z M 52 329 " clip-rule="nonzero"/></clipPath><clipPath id="de147eb79a"><path d="M 8.449219 111 L 366.199219 111 L 366.199219 334 L 8.449219 334 Z M 8.449219 111 " clip-rule="nonzero"/></clipPath></defs><g clip-path="url(#33a7cb05c0)"><path fill="#422a2a" d="M 31.707031 116.589844 L 349.84375 31.207031 L 351.753906 38.34375 L 33.617188 123.730469 Z M 31.707031 116.589844 " fill-opacity="1" fill-rule="nonzero"/></g><g clip-path="url(#432f62e32d)"><path fill="#422a2a" d="M 52.535156 329.976562 L 52.535156 343.980469 L 83.242188 343.980469 L 83.242188 329.976562 Z M 291.496094 329.976562 L 291.496094 343.980469 L 322.199219 343.980469 L 322.199219 329.976562 Z M 291.496094 329.976562 " fill-opacity="1" fill-rule="nonzero"/></g><g clip-path="url(#de147eb79a)"><path fill="#422a2a" d="M 42.585938 111.492188 L 332.0625 111.492188 C 350.933594 111.492188 366.199219 126.785156 366.199219 145.6875 L 366.199219 299.5625 C 366.199219 318.464844 350.933594 333.757812 332.0625 333.757812 L 42.585938 333.757812 C 23.71875 333.757812 8.449219 318.464844 8.449219 299.5625 L 8.449219 145.773438 C 8.449219 126.871094 23.804688 111.492188 42.585938 111.492188 Z M 42.585938 111.492188 " fill-opacity="1" fill-rule="nonzero"/></g><path fill="#fcecb9" d="M 44.730469 131.425781 L 330.003906 131.425781 C 338.582031 131.425781 345.53125 138.382812 345.53125 146.976562 L 345.53125 298.101562 C 345.53125 306.695312 338.582031 313.652344 330.003906 313.652344 L 44.730469 313.652344 C 36.15625 313.652344 29.207031 306.695312 29.207031 298.101562 L 29.207031 146.976562 C 29.207031 138.382812 36.15625 131.425781 44.730469 131.425781 Z M 44.730469 131.425781 " fill-opacity="1" fill-rule="nonzero"/><path fill="#422a2a" d="M 47.90625 145.429688 L 326.832031 145.429688 C 329.832031 145.429688 332.234375 147.835938 332.234375 150.839844 L 332.234375 205.742188 C 332.234375 208.75 329.832031 211.15625 326.832031 211.15625 L 47.90625 211.15625 C 44.902344 211.15625 42.5 208.75 42.5 205.742188 L 42.5 150.839844 C 42.5 147.835938 44.902344 145.429688 47.90625 145.429688 Z M 47.90625 145.429688 " fill-opacity="1" fill-rule="nonzero"/><path fill="#febf56" d="M 48.25 151.269531 L 48.25 205.398438 L 326.402344 205.398438 L 326.402344 151.269531 Z M 48.25 151.269531 " fill-opacity="1" fill-rule="nonzero"/><path fill="#8d7964" d="M 47.90625 233.75 L 326.832031 233.75 C 329.832031 233.75 332.234375 236.15625 332.234375 239.164062 L 332.234375 294.066406 C 332.234375 297.070312 329.832031 299.476562 326.832031 299.476562 L 47.90625 299.476562 C 44.902344 299.476562 42.5 297.070312 42.5 294.066406 L 42.5 239.164062 C 42.5 236.15625 44.902344 233.75 47.90625 233.75 Z M 47.90625 233.75 " fill-opacity="1" fill-rule="nonzero"/><path fill="#febf56" d="M 79.726562 286.375 C 68.832031 286.375 60 277.523438 60 266.613281 C 60 255.699219 68.832031 246.851562 79.726562 246.851562 C 90.617188 246.851562 99.453125 255.699219 99.453125 266.613281 C 99.453125 277.523438 90.535156 286.375 79.726562 286.375 Z M 79.726562 248.484375 C 69.777344 248.484375 61.628906 256.644531 61.628906 266.613281 C 61.628906 276.578125 69.777344 284.742188 79.726562 284.742188 C 89.675781 284.742188 97.824219 276.578125 97.824219 266.613281 C 97.824219 256.644531 89.675781 248.484375 79.726562 248.484375 Z M 79.726562 248.484375 " fill-opacity="1" fill-rule="nonzero"/><path fill="#febf56" d="M 79.726562 254.414062 C 86.417969 254.414062 91.90625 259.910156 91.90625 266.613281 C 91.90625 273.3125 86.417969 278.8125 79.726562 278.8125 C 73.035156 278.8125 67.546875 273.3125 67.546875 266.613281 C 67.546875 259.910156 72.949219 254.414062 79.726562 254.414062 Z M 79.726562 254.414062 " fill-opacity="1" fill-rule="nonzero"/><path fill="#febf56" d="M 294.066406 286.375 C 283.171875 286.375 274.335938 277.523438 274.335938 266.613281 C 274.335938 255.699219 283.171875 246.851562 294.066406 246.851562 C 304.957031 246.851562 313.792969 255.699219 313.792969 266.613281 C 313.792969 277.523438 304.957031 286.375 294.066406 286.375 Z M 294.066406 248.484375 C 284.117188 248.484375 275.96875 256.644531 275.96875 266.613281 C 275.96875 276.578125 284.117188 284.742188 294.066406 284.742188 C 304.015625 284.742188 312.164062 276.578125 312.164062 266.613281 C 312.164062 256.644531 304.101562 248.484375 294.066406 248.484375 Z M 294.066406 248.484375 " fill-opacity="1" fill-rule="nonzero"/><path fill="#febf56" d="M 294.066406 254.414062 C 300.753906 254.414062 306.246094 259.910156 306.246094 266.613281 C 306.246094 273.3125 300.753906 278.8125 294.066406 278.8125 C 287.375 278.8125 281.886719 273.3125 281.886719 266.613281 C 281.886719 259.910156 287.375 254.414062 294.066406 254.414062 Z M 294.066406 254.414062 " fill-opacity="1" fill-rule="nonzero"/><path fill="#febf56" d="M 129.863281 242.441406 L 144.015625 242.441406 C 145.644531 242.441406 146.933594 243.730469 146.933594 245.363281 L 146.933594 261.085938 C 146.933594 262.71875 145.644531 264.007812 144.015625 264.007812 L 129.863281 264.007812 C 128.234375 264.007812 126.949219 262.71875 126.949219 261.085938 L 126.949219 245.363281 C 126.949219 243.730469 128.234375 242.441406 129.863281 242.441406 Z M 129.863281 242.441406 " fill-opacity="1" fill-rule="nonzero"/><path fill="#febf56" d="M 155.082031 242.441406 L 169.230469 242.441406 C 170.863281 242.441406 172.148438 243.730469 172.148438 245.363281 L 172.148438 261.085938 C 172.148438 262.71875 170.863281 264.007812 169.230469 264.007812 L 155.082031 264.007812 C 153.449219 264.007812 152.164062 262.71875 152.164062 261.085938 L 152.164062 245.363281 C 152.164062 243.730469 153.449219 242.441406 155.082031 242.441406 Z M 155.082031 242.441406 " fill-opacity="1" fill-rule="nonzero"/><path fill="#febf56" d="M 180.296875 242.441406 L 194.449219 242.441406 C 196.078125 242.441406 197.363281 243.730469 197.363281 245.363281 L 197.363281 261.085938 C 197.363281 262.71875 196.078125 264.007812 194.449219 264.007812 L 180.296875 264.007812 C 178.667969 264.007812 177.378906 262.71875 177.378906 261.085938 L 177.378906 245.363281 C 177.378906 243.730469 178.667969 242.441406 180.296875 242.441406 Z M 180.296875 242.441406 " fill-opacity="1" fill-rule="nonzero"/><path fill="#febf56" d="M 205.511719 242.441406 L 219.664062 242.441406 C 221.296875 242.441406 222.582031 243.730469 222.582031 245.363281 L 222.582031 261.085938 C 222.582031 262.71875 221.296875 264.007812 219.664062 264.007812 L 205.511719 264.007812 C 203.882812 264.007812 202.597656 262.71875 202.597656 261.085938 L 202.597656 245.363281 C 202.597656 243.730469 203.882812 242.441406 205.511719 242.441406 Z M 205.511719 242.441406 " fill-opacity="1" fill-rule="nonzero"/><path fill="#febf56" d="M 230.730469 242.441406 L 244.882812 242.441406 C 246.511719 242.441406 247.796875 243.730469 247.796875 245.363281 L 247.796875 261.085938 C 247.796875 262.71875 246.511719 264.007812 244.882812 264.007812 L 230.730469 264.007812 C 229.101562 264.007812 227.8125 262.71875 227.8125 261.085938 L 227.8125 245.363281 C 227.8125 243.730469 229.101562 242.441406 230.730469 242.441406 Z M 230.730469 242.441406 " fill-opacity="1" fill-rule="nonzero"/><path fill="#422a2a" d="M 119.695312 275.59375 L 254.957031 275.59375 C 256.328125 275.59375 257.359375 276.710938 257.359375 278 C 257.359375 279.371094 256.242188 280.402344 254.957031 280.402344 L 119.695312 280.402344 C 118.324219 280.402344 117.292969 279.285156 117.292969 278 C 117.292969 276.710938 118.410156 275.59375 119.695312 275.59375 Z M 119.695312 275.59375 " fill-opacity="1" fill-rule="nonzero"/><path fill="#422a2a" d="M 119.695312 285.988281 L 254.957031 285.988281 C 256.328125 285.988281 257.359375 287.105469 257.359375 288.394531 C 257.359375 289.769531 256.242188 290.800781 254.957031 290.800781 L 119.695312 290.800781 C 118.324219 290.800781 117.292969 289.683594 117.292969 288.394531 C 117.292969 287.105469 118.410156 285.988281 119.695312 285.988281 Z M 119.695312 285.988281 " fill-opacity="1" fill-rule="nonzero"/><path fill="#422a2a" d="M 321.855469 208.835938 C 321.6875 208.835938 321.429688 208.75 321.257812 208.578125 L 314.394531 201.703125 L 307.535156 208.578125 C 307.191406 208.921875 306.675781 208.921875 306.417969 208.578125 L 299.558594 201.703125 L 292.695312 208.578125 C 292.351562 208.921875 291.835938 208.921875 291.578125 208.578125 L 284.71875 201.703125 L 277.855469 208.578125 C 277.511719 208.921875 277 208.921875 276.742188 208.578125 L 269.878906 201.703125 L 263.019531 208.578125 C 262.675781 208.921875 262.160156 208.921875 261.902344 208.578125 L 255.042969 201.703125 L 248.179688 208.578125 C 247.835938 208.921875 247.324219 208.921875 247.066406 208.578125 L 240.203125 201.703125 L 233.339844 208.578125 C 233 208.921875 232.484375 208.921875 232.226562 208.578125 L 225.363281 201.703125 L 218.503906 208.578125 C 218.160156 208.921875 217.644531 208.921875 217.386719 208.578125 L 210.527344 201.703125 L 203.664062 208.578125 C 203.320312 208.921875 202.808594 208.921875 202.550781 208.578125 L 195.6875 201.703125 L 188.828125 208.578125 C 188.484375 208.921875 187.96875 208.921875 187.710938 208.578125 L 180.851562 201.703125 L 173.988281 208.578125 C 173.644531 208.921875 173.128906 208.921875 172.875 208.578125 L 166.011719 201.703125 L 159.148438 208.578125 C 158.808594 208.921875 158.292969 208.921875 158.035156 208.578125 L 151.171875 201.703125 L 144.3125 208.578125 C 143.96875 208.921875 143.453125 208.921875 143.195312 208.578125 L 136.335938 201.703125 L 129.472656 208.578125 C 129.128906 208.921875 128.617188 208.921875 128.359375 208.578125 L 121.496094 201.703125 L 114.636719 208.578125 C 114.292969 208.921875 113.777344 208.921875 113.519531 208.578125 L 106.660156 201.703125 L 99.796875 208.578125 C 99.453125 208.921875 98.9375 208.921875 98.679688 208.578125 L 91.820312 201.703125 L 84.957031 208.578125 C 84.613281 208.921875 84.101562 208.921875 83.84375 208.578125 L 76.980469 201.703125 L 70.121094 208.578125 C 69.777344 208.921875 69.261719 208.921875 69.003906 208.578125 L 62.144531 201.703125 L 55.28125 208.578125 C 54.9375 208.921875 54.425781 208.921875 54.167969 208.578125 L 46.703125 201.1875 C 46.53125 201.015625 46.445312 200.84375 46.445312 200.585938 C 46.445312 200.328125 46.53125 200.15625 46.703125 199.984375 L 53.566406 193.113281 L 46.703125 186.238281 C 46.53125 186.066406 46.445312 185.894531 46.445312 185.636719 C 46.445312 185.378906 46.53125 185.207031 46.703125 185.035156 L 53.566406 178.164062 L 46.703125 171.289062 C 46.53125 171.117188 46.445312 170.945312 46.445312 170.6875 C 46.445312 170.429688 46.53125 170.257812 46.703125 170.085938 L 53.566406 163.214844 L 46.703125 156.339844 C 46.53125 156.167969 46.445312 155.996094 46.445312 155.738281 C 46.445312 155.480469 46.53125 155.308594 46.703125 155.136719 L 54.167969 147.75 C 54.507812 147.40625 55.023438 147.40625 55.28125 147.75 L 62.144531 154.621094 L 69.003906 147.75 C 69.347656 147.40625 69.863281 147.40625 70.121094 147.75 L 76.980469 154.621094 L 83.84375 147.75 C 84.1875 147.40625 84.699219 147.40625 84.957031 147.75 L 91.820312 154.621094 L 98.679688 147.75 C 99.023438 147.40625 99.539062 147.40625 99.796875 147.75 L 106.660156 154.621094 L 113.519531 147.75 C 113.863281 147.40625 114.378906 147.40625 114.636719 147.75 L 121.496094 154.621094 L 128.359375 147.75 C 128.703125 147.40625 129.214844 147.40625 129.472656 147.75 L 136.335938 154.621094 L 143.195312 147.75 C 143.539062 147.40625 144.054688 147.40625 144.3125 147.75 L 151.171875 154.621094 L 158.035156 147.75 C 158.378906 147.40625 158.894531 147.40625 159.148438 147.75 L 166.011719 154.621094 L 172.875 147.75 C 173.214844 147.40625 173.730469 147.40625 173.988281 147.75 L 180.851562 154.621094 L 187.710938 147.75 C 188.054688 147.40625 188.570312 147.40625 188.828125 147.75 L 195.6875 154.621094 L 202.550781 147.75 C 202.894531 147.40625 203.40625 147.40625 203.664062 147.75 L 210.527344 154.621094 L 217.386719 147.75 C 217.730469 147.40625 218.246094 147.40625 218.503906 147.75 L 225.363281 154.621094 L 232.226562 147.75 C 232.570312 147.40625 233.085938 147.40625 233.339844 147.75 L 240.203125 154.621094 L 247.066406 147.75 C 247.40625 147.40625 247.921875 147.40625 248.179688 147.75 L 255.042969 154.621094 L 261.902344 147.75 C 262.246094 147.40625 262.761719 147.40625 263.019531 147.75 L 269.878906 154.621094 L 276.742188 147.75 C 277.085938 147.40625 277.597656 147.40625 277.855469 147.75 L 284.71875 154.621094 L 291.578125 147.75 C 291.921875 147.40625 292.4375 147.40625 292.695312 147.75 L 299.558594 154.621094 L 306.417969 147.75 C 306.761719 147.40625 307.277344 147.40625 307.535156 147.75 L 314.394531 154.621094 L 321.257812 147.75 C 321.601562 147.40625 322.113281 147.40625 322.371094 147.75 L 329.832031 155.136719 C 330.003906 155.308594 330.089844 155.480469 330.089844 155.738281 C 330.089844 155.996094 330.003906 156.167969 329.832031 156.339844 L 322.972656 163.214844 L 329.832031 170.085938 C 330.003906 170.257812 330.089844 170.429688 330.089844 170.6875 C 330.089844 170.945312 330.003906 171.117188 329.832031 171.289062 L 322.972656 178.164062 L 329.832031 185.035156 C 330.003906 185.207031 330.089844 185.378906 330.089844 185.636719 C 330.089844 185.894531 330.003906 186.066406 329.832031 186.238281 L 322.972656 193.113281 L 329.832031 199.984375 C 330.003906 200.15625 330.089844 200.328125 330.089844 200.585938 C 330.089844 200.84375 330.003906 201.015625 329.832031 201.1875 L 322.371094 208.578125 C 322.285156 208.75 322.027344 208.835938 321.855469 208.835938 Z M 315.511719 200.585938 L 321.855469 206.859375 L 328.203125 200.585938 L 321.855469 194.316406 Z M 300.585938 200.585938 L 306.933594 206.859375 L 313.28125 200.585938 L 306.933594 194.316406 Z M 166.097656 200.585938 L 172.445312 206.859375 L 178.792969 200.585938 L 172.445312 194.316406 Z M 121.238281 200.585938 L 127.585938 206.859375 L 133.933594 200.585938 L 127.585938 194.316406 Z M 61.457031 200.585938 L 67.804688 206.859375 L 74.152344 200.585938 L 67.804688 194.316406 Z M 285.660156 200.585938 L 292.007812 206.859375 L 298.355469 200.585938 L 292.007812 194.316406 Z M 270.738281 200.585938 L 277.085938 206.859375 L 283.433594 200.585938 L 277.085938 194.316406 Z M 240.804688 200.585938 L 247.152344 206.859375 L 253.496094 200.585938 L 247.152344 194.316406 Z M 225.878906 200.585938 L 232.226562 206.859375 L 238.574219 200.585938 L 232.226562 194.316406 Z M 210.957031 200.585938 L 217.300781 206.859375 L 223.648438 200.585938 L 217.300781 194.316406 Z M 151.171875 200.585938 L 157.519531 206.859375 L 163.867188 200.585938 L 157.519531 194.316406 Z M 136.25 200.585938 L 142.597656 206.859375 L 148.941406 200.585938 L 142.597656 194.316406 Z M 91.390625 200.585938 L 97.738281 206.859375 L 104.085938 200.585938 L 97.738281 194.316406 Z M 76.46875 200.585938 L 82.8125 206.859375 L 89.160156 200.585938 L 82.8125 194.316406 Z M 255.726562 200.585938 L 262.074219 206.859375 L 268.421875 200.585938 L 262.074219 194.316406 Z M 181.023438 200.585938 L 187.367188 206.859375 L 193.714844 200.585938 L 187.367188 194.316406 Z M 106.316406 200.585938 L 112.664062 206.859375 L 119.007812 200.585938 L 112.664062 194.316406 Z M 196.03125 200.585938 L 202.378906 206.859375 L 208.726562 200.585938 L 202.378906 194.316406 Z M 46.53125 200.585938 L 52.878906 206.859375 L 59.226562 200.585938 L 52.878906 194.316406 Z M 278.199219 193.199219 L 284.546875 199.46875 L 290.894531 193.199219 L 284.546875 186.925781 Z M 218.417969 193.199219 L 224.765625 199.46875 L 231.113281 193.199219 L 224.765625 186.925781 Z M 173.558594 193.199219 L 179.90625 199.46875 L 186.253906 193.199219 L 179.90625 186.925781 Z M 113.777344 193.199219 L 120.125 199.46875 L 126.472656 193.199219 L 120.125 186.925781 Z M 158.636719 193.199219 L 164.980469 199.46875 L 171.328125 193.199219 L 164.980469 186.925781 Z M 233.339844 193.199219 L 239.6875 199.46875 L 246.035156 193.199219 L 239.6875 186.925781 Z M 203.492188 193.199219 L 209.839844 199.46875 L 216.1875 193.199219 L 209.839844 186.925781 Z M 308.046875 193.199219 L 314.394531 199.46875 L 320.742188 193.199219 L 314.394531 186.925781 Z M 248.265625 193.199219 L 254.613281 199.46875 L 260.960938 193.199219 L 254.613281 186.925781 Z M 188.484375 193.199219 L 194.832031 199.46875 L 201.175781 193.199219 L 194.832031 186.925781 Z M 53.996094 193.199219 L 60.34375 199.46875 L 66.6875 193.199219 L 60.34375 186.925781 Z M 293.125 193.199219 L 299.472656 199.46875 L 305.816406 193.199219 L 299.472656 186.925781 Z M 143.710938 193.199219 L 150.058594 199.46875 L 156.40625 193.199219 L 150.058594 186.925781 Z M 83.929688 193.199219 L 90.277344 199.46875 L 96.621094 193.199219 L 90.277344 186.925781 Z M 69.003906 193.199219 L 75.351562 199.46875 L 81.699219 193.199219 L 75.351562 186.925781 Z M 98.851562 193.199219 L 105.199219 199.46875 L 111.546875 193.199219 L 105.199219 186.925781 Z M 263.277344 193.199219 L 269.621094 199.46875 L 275.96875 193.199219 L 269.621094 186.925781 Z M 128.703125 193.199219 L 135.046875 199.46875 L 141.394531 193.199219 L 135.046875 186.925781 Z M 240.804688 185.722656 L 247.152344 191.996094 L 253.496094 185.722656 L 247.152344 179.453125 Z M 225.878906 185.722656 L 232.226562 191.996094 L 238.574219 185.722656 L 232.226562 179.453125 Z M 195.945312 185.722656 L 202.292969 191.996094 L 208.640625 185.722656 L 202.292969 179.453125 Z M 91.390625 185.722656 L 97.738281 191.996094 L 104.085938 185.722656 L 97.738281 179.453125 Z M 61.457031 185.722656 L 67.804688 191.996094 L 74.152344 185.722656 L 67.804688 179.453125 Z M 46.53125 185.722656 L 52.878906 191.996094 L 59.226562 185.722656 L 52.878906 179.453125 Z M 285.660156 185.722656 L 292.007812 191.996094 L 298.355469 185.722656 L 292.007812 179.453125 Z M 270.738281 185.722656 L 277.085938 191.996094 L 283.433594 185.722656 L 277.085938 179.453125 Z M 210.957031 185.722656 L 217.300781 191.996094 L 223.648438 185.722656 L 217.300781 179.453125 Z M 166.097656 185.722656 L 172.445312 191.996094 L 178.792969 185.722656 L 172.445312 179.453125 Z M 136.25 185.722656 L 142.597656 191.996094 L 148.941406 185.722656 L 142.597656 179.453125 Z M 121.238281 185.722656 L 127.585938 191.996094 L 133.933594 185.722656 L 127.585938 179.453125 Z M 76.46875 185.722656 L 82.8125 191.996094 L 89.160156 185.722656 L 82.8125 179.453125 Z M 315.511719 185.722656 L 321.855469 191.996094 L 328.203125 185.722656 L 321.855469 179.453125 Z M 255.726562 185.722656 L 262.074219 191.996094 L 268.421875 185.722656 L 262.074219 179.453125 Z M 181.023438 185.722656 L 187.367188 191.996094 L 193.714844 185.722656 L 187.367188 179.453125 Z M 106.316406 185.722656 L 112.664062 191.996094 L 119.007812 185.722656 L 112.664062 179.453125 Z M 151.171875 185.722656 L 157.519531 191.996094 L 163.867188 185.722656 L 157.519531 179.453125 Z M 300.585938 185.722656 L 306.933594 191.996094 L 313.28125 185.722656 L 306.933594 179.453125 Z M 293.125 178.335938 L 299.472656 184.605469 L 305.816406 178.335938 L 299.472656 172.0625 Z M 233.339844 178.335938 L 239.6875 184.605469 L 246.035156 178.335938 L 239.6875 172.0625 Z M 203.492188 178.335938 L 209.839844 184.605469 L 216.1875 178.335938 L 209.839844 172.0625 Z M 83.929688 178.335938 L 90.277344 184.605469 L 96.621094 178.335938 L 90.277344 172.0625 Z M 53.996094 178.335938 L 60.34375 184.605469 L 66.6875 178.335938 L 60.34375 172.0625 Z M 308.046875 178.335938 L 314.394531 184.605469 L 320.742188 178.335938 L 314.394531 172.0625 Z M 263.277344 178.335938 L 269.621094 184.605469 L 275.96875 178.335938 L 269.621094 172.0625 Z M 248.265625 178.335938 L 254.613281 184.605469 L 260.960938 178.335938 L 254.613281 172.0625 Z M 173.558594 178.335938 L 179.90625 184.605469 L 186.253906 178.335938 L 179.90625 172.0625 Z M 158.636719 178.335938 L 164.980469 184.605469 L 171.328125 178.335938 L 164.980469 172.0625 Z M 128.703125 178.335938 L 135.046875 184.605469 L 141.394531 178.335938 L 135.046875 172.0625 Z M 113.777344 178.335938 L 120.125 184.605469 L 126.472656 178.335938 L 120.125 172.0625 Z M 278.199219 178.335938 L 284.546875 184.605469 L 290.894531 178.335938 L 284.546875 172.0625 Z M 143.710938 178.335938 L 150.058594 184.605469 L 156.40625 178.335938 L 150.058594 172.0625 Z M 188.484375 178.335938 L 194.832031 184.605469 L 201.175781 178.335938 L 194.832031 172.0625 Z M 98.851562 178.335938 L 105.199219 184.605469 L 111.546875 178.335938 L 105.199219 172.0625 Z M 218.417969 178.335938 L 224.765625 184.605469 L 231.113281 178.335938 L 224.765625 172.0625 Z M 69.003906 178.335938 L 75.351562 184.605469 L 81.699219 178.335938 L 75.351562 172.0625 Z M 300.585938 170.859375 L 306.933594 177.132812 L 313.28125 170.859375 L 306.933594 164.589844 Z M 195.945312 170.859375 L 202.292969 177.132812 L 208.640625 170.859375 L 202.292969 164.589844 Z M 61.457031 170.859375 L 67.804688 177.132812 L 74.152344 170.859375 L 67.804688 164.589844 Z M 46.53125 170.859375 L 52.878906 177.132812 L 59.226562 170.859375 L 52.878906 164.589844 Z M 285.660156 170.859375 L 292.007812 177.132812 L 298.355469 170.859375 L 292.007812 164.589844 Z M 270.738281 170.859375 L 277.085938 177.132812 L 283.433594 170.859375 L 277.085938 164.589844 Z M 240.804688 170.859375 L 247.152344 177.132812 L 253.496094 170.859375 L 247.152344 164.589844 Z M 225.878906 170.859375 L 232.226562 177.132812 L 238.574219 170.859375 L 232.226562 164.589844 Z M 210.957031 170.859375 L 217.300781 177.132812 L 223.648438 170.859375 L 217.300781 164.589844 Z M 151.171875 170.859375 L 157.519531 177.132812 L 163.867188 170.859375 L 157.519531 164.589844 Z M 136.25 170.859375 L 142.597656 177.132812 L 148.941406 170.859375 L 142.597656 164.589844 Z M 121.238281 170.859375 L 127.585938 177.132812 L 133.933594 170.859375 L 127.585938 164.589844 Z M 91.390625 170.859375 L 97.738281 177.132812 L 104.085938 170.859375 L 97.738281 164.589844 Z M 76.46875 170.859375 L 82.8125 177.132812 L 89.160156 170.859375 L 82.8125 164.589844 Z M 255.726562 170.859375 L 262.074219 177.132812 L 268.421875 170.859375 L 262.074219 164.589844 Z M 181.023438 170.859375 L 187.367188 177.132812 L 193.714844 170.859375 L 187.367188 164.589844 Z M 106.316406 170.859375 L 112.664062 177.132812 L 119.007812 170.859375 L 112.664062 164.589844 Z M 315.511719 170.859375 L 321.855469 177.132812 L 328.203125 170.859375 L 321.855469 164.589844 Z M 166.097656 170.859375 L 172.445312 177.132812 L 178.792969 170.859375 L 172.445312 164.589844 Z M 308.046875 163.472656 L 314.394531 169.742188 L 320.742188 163.472656 L 314.394531 157.199219 Z M 293.125 163.472656 L 299.472656 169.742188 L 305.816406 163.472656 L 299.472656 157.199219 Z M 203.492188 163.472656 L 209.839844 169.742188 L 216.1875 163.472656 L 209.839844 157.199219 Z M 158.636719 163.472656 L 164.980469 169.742188 L 171.328125 163.472656 L 164.980469 157.199219 Z M 69.003906 163.472656 L 75.351562 169.742188 L 81.699219 163.472656 L 75.351562 157.199219 Z M 53.996094 163.472656 L 60.34375 169.742188 L 66.6875 163.472656 L 60.34375 157.199219 Z M 263.277344 163.472656 L 269.621094 169.742188 L 275.96875 163.472656 L 269.621094 157.199219 Z M 248.265625 163.472656 L 254.613281 169.742188 L 260.960938 163.472656 L 254.613281 157.199219 Z M 173.558594 163.472656 L 179.90625 169.742188 L 186.253906 163.472656 L 179.90625 157.199219 Z M 128.703125 163.472656 L 135.046875 169.742188 L 141.394531 163.472656 L 135.046875 157.199219 Z M 113.777344 163.472656 L 120.125 169.742188 L 126.472656 163.472656 L 120.125 157.199219 Z M 278.199219 163.472656 L 284.546875 169.742188 L 290.894531 163.472656 L 284.546875 157.199219 Z M 218.417969 163.472656 L 224.765625 169.742188 L 231.113281 163.472656 L 224.765625 157.199219 Z M 143.710938 163.472656 L 150.058594 169.742188 L 156.40625 163.472656 L 150.058594 157.199219 Z M 83.929688 163.472656 L 90.277344 169.742188 L 96.621094 163.472656 L 90.277344 157.199219 Z M 188.484375 163.472656 L 194.832031 169.742188 L 201.175781 163.472656 L 194.832031 157.199219 Z M 233.339844 163.472656 L 239.6875 169.742188 L 246.035156 163.472656 L 239.6875 157.199219 Z M 98.851562 163.472656 L 105.199219 169.742188 L 111.546875 163.472656 L 105.199219 157.199219 Z M 315.511719 155.996094 L 321.855469 162.269531 L 328.203125 155.996094 L 321.855469 149.722656 Z M 300.585938 155.996094 L 306.933594 162.269531 L 313.28125 155.996094 L 306.933594 149.722656 Z M 195.945312 155.996094 L 202.292969 162.269531 L 208.640625 155.996094 L 202.292969 149.722656 Z M 166.097656 155.996094 L 172.445312 162.269531 L 178.792969 155.996094 L 172.445312 149.722656 Z M 61.457031 155.996094 L 67.804688 162.269531 L 74.152344 155.996094 L 67.804688 149.722656 Z M 285.660156 155.996094 L 292.007812 162.269531 L 298.355469 155.996094 L 292.007812 149.722656 Z M 270.738281 155.996094 L 277.085938 162.269531 L 283.433594 155.996094 L 277.085938 149.722656 Z M 240.804688 155.996094 L 247.152344 162.269531 L 253.496094 155.996094 L 247.152344 149.722656 Z M 225.878906 155.996094 L 232.226562 162.269531 L 238.574219 155.996094 L 232.226562 149.722656 Z M 210.957031 155.996094 L 217.300781 162.269531 L 223.648438 155.996094 L 217.300781 149.722656 Z M 151.171875 155.996094 L 157.519531 162.269531 L 163.867188 155.996094 L 157.519531 149.722656 Z M 136.25 155.996094 L 142.597656 162.269531 L 148.941406 155.996094 L 142.597656 149.722656 Z M 121.238281 155.996094 L 127.585938 162.269531 L 133.933594 155.996094 L 127.585938 149.722656 Z M 91.390625 155.996094 L 97.738281 162.269531 L 104.085938 155.996094 L 97.738281 149.722656 Z M 76.46875 155.996094 L 82.8125 162.269531 L 89.160156 155.996094 L 82.8125 149.722656 Z M 255.726562 155.996094 L 262.074219 162.269531 L 268.421875 155.996094 L 262.074219 149.722656 Z M 106.316406 155.996094 L 112.664062 162.269531 L 119.007812 155.996094 L 112.664062 149.722656 Z M 46.53125 155.996094 L 52.878906 162.269531 L 59.226562 155.996094 L 52.878906 149.722656 Z M 181.023438 155.996094 L 187.367188 162.269531 L 193.714844 155.996094 L 187.367188 149.722656 Z M 181.023438 155.996094 " fill-opacity="1" fill-rule="nonzero"/></svg>