<svg xmlns="http://www.w3.org/2000/svg" xmlns:xlink="http://www.w3.org/1999/xlink" width="304" zoomAndPan="magnify" viewBox="0 0 228 64.499998" height="86" preserveAspectRatio="xMidYMid meet" version="1.0"><defs><g/><clipPath id="f6ff470424"><path d="M 2 20.285156 L 28 20.285156 L 28 28 L 2 28 Z M 2 20.285156 " clip-rule="nonzero"/></clipPath><clipPath id="e9fc4238ca"><path d="M 4 43 L 26 43 L 26 44.101562 L 4 44.101562 Z M 4 43 " clip-rule="nonzero"/></clipPath><clipPath id="b12314f2d3"><path d="M 0.949219 26 L 28.488281 26 L 28.488281 44 L 0.949219 44 Z M 0.949219 26 " clip-rule="nonzero"/></clipPath></defs><g clip-path="url(#f6ff470424)"><path fill="#422a2a" d="M 2.738281 26.785156 L 27.226562 20.28125 L 27.375 20.824219 L 2.886719 27.328125 Z M 2.738281 26.785156 " fill-opacity="1" fill-rule="nonzero"/></g><g clip-path="url(#e9fc4238ca)"><path fill="#422a2a" d="M 4.34375 43.03125 L 4.34375 44.097656 L 6.707031 44.097656 L 6.707031 43.03125 Z M 22.734375 43.03125 L 22.734375 44.097656 L 25.101562 44.097656 L 25.101562 43.03125 Z M 22.734375 43.03125 " fill-opacity="1" fill-rule="nonzero"/></g><g clip-path="url(#b12314f2d3)"><path fill="#422a2a" d="M 3.578125 26.394531 L 25.859375 26.394531 C 27.3125 26.394531 28.488281 27.558594 28.488281 29 L 28.488281 40.714844 C 28.488281 42.15625 27.3125 43.320312 25.859375 43.320312 L 3.578125 43.320312 C 2.125 43.320312 0.949219 42.15625 0.949219 40.714844 L 0.949219 29.007812 C 0.949219 27.566406 2.132812 26.394531 3.578125 26.394531 Z M 3.578125 26.394531 " fill-opacity="1" fill-rule="nonzero"/></g><path fill="#fcecb9" d="M 3.742188 27.914062 L 25.699219 27.914062 C 26.359375 27.914062 26.894531 28.445312 26.894531 29.097656 L 26.894531 40.605469 C 26.894531 41.257812 26.359375 41.789062 25.699219 41.789062 L 3.742188 41.789062 C 3.082031 41.789062 2.546875 41.257812 2.546875 40.605469 L 2.546875 29.097656 C 2.546875 28.445312 3.082031 27.914062 3.742188 27.914062 Z M 3.742188 27.914062 " fill-opacity="1" fill-rule="nonzero"/><path fill="#422a2a" d="M 3.988281 28.980469 L 25.457031 28.980469 C 25.6875 28.980469 25.871094 29.164062 25.871094 29.390625 L 25.871094 33.574219 C 25.871094 33.800781 25.6875 33.984375 25.457031 33.984375 L 3.988281 33.984375 C 3.753906 33.984375 3.570312 33.800781 3.570312 33.574219 L 3.570312 29.390625 C 3.570312 29.164062 3.753906 28.980469 3.988281 28.980469 Z M 3.988281 28.980469 " fill-opacity="1" fill-rule="nonzero"/><path fill="#febf56" d="M 4.011719 29.425781 L 4.011719 33.546875 L 25.421875 33.546875 L 25.421875 29.425781 Z M 4.011719 29.425781 " fill-opacity="1" fill-rule="nonzero"/><path fill="#8d7964" d="M 3.988281 35.707031 L 25.457031 35.707031 C 25.6875 35.707031 25.871094 35.886719 25.871094 36.117188 L 25.871094 40.296875 C 25.871094 40.527344 25.6875 40.710938 25.457031 40.710938 L 3.988281 40.710938 C 3.753906 40.710938 3.570312 40.527344 3.570312 40.296875 L 3.570312 36.117188 C 3.570312 35.886719 3.753906 35.707031 3.988281 35.707031 Z M 3.988281 35.707031 " fill-opacity="1" fill-rule="nonzero"/><path fill="#febf56" d="M 6.4375 39.710938 C 5.597656 39.710938 4.917969 39.039062 4.917969 38.207031 C 4.917969 37.375 5.597656 36.703125 6.4375 36.703125 C 7.273438 36.703125 7.953125 37.375 7.953125 38.207031 C 7.953125 39.039062 7.269531 39.710938 6.4375 39.710938 Z M 6.4375 36.828125 C 5.671875 36.828125 5.042969 37.449219 5.042969 38.207031 C 5.042969 38.964844 5.671875 39.585938 6.4375 39.585938 C 7.203125 39.585938 7.828125 38.964844 7.828125 38.207031 C 7.828125 37.449219 7.203125 36.828125 6.4375 36.828125 Z M 6.4375 36.828125 " fill-opacity="1" fill-rule="nonzero"/><path fill="#febf56" d="M 6.4375 37.277344 C 6.949219 37.277344 7.375 37.695312 7.375 38.207031 C 7.375 38.71875 6.949219 39.136719 6.4375 39.136719 C 5.921875 39.136719 5.5 38.71875 5.5 38.207031 C 5.5 37.695312 5.914062 37.277344 6.4375 37.277344 Z M 6.4375 37.277344 " fill-opacity="1" fill-rule="nonzero"/><path fill="#febf56" d="M 22.933594 39.710938 C 22.09375 39.710938 21.414062 39.039062 21.414062 38.207031 C 21.414062 37.375 22.09375 36.703125 22.933594 36.703125 C 23.773438 36.703125 24.453125 37.375 24.453125 38.207031 C 24.453125 39.039062 23.773438 39.710938 22.933594 39.710938 Z M 22.933594 36.828125 C 22.167969 36.828125 21.542969 37.449219 21.542969 38.207031 C 21.542969 38.964844 22.167969 39.585938 22.933594 39.585938 C 23.699219 39.585938 24.328125 38.964844 24.328125 38.207031 C 24.328125 37.449219 23.707031 36.828125 22.933594 36.828125 Z M 22.933594 36.828125 " fill-opacity="1" fill-rule="nonzero"/><path fill="#febf56" d="M 22.933594 37.277344 C 23.449219 37.277344 23.871094 37.695312 23.871094 38.207031 C 23.871094 38.71875 23.449219 39.136719 22.933594 39.136719 C 22.417969 39.136719 21.996094 38.71875 21.996094 38.207031 C 21.996094 37.695312 22.417969 37.277344 22.933594 37.277344 Z M 22.933594 37.277344 " fill-opacity="1" fill-rule="nonzero"/><path fill="#febf56" d="M 10.296875 36.367188 L 11.382812 36.367188 C 11.511719 36.367188 11.609375 36.464844 11.609375 36.589844 L 11.609375 37.785156 C 11.609375 37.910156 11.511719 38.007812 11.382812 38.007812 L 10.296875 38.007812 C 10.167969 38.007812 10.070312 37.910156 10.070312 37.785156 L 10.070312 36.589844 C 10.070312 36.464844 10.167969 36.367188 10.296875 36.367188 Z M 10.296875 36.367188 " fill-opacity="1" fill-rule="nonzero"/><path fill="#febf56" d="M 12.234375 36.367188 L 13.324219 36.367188 C 13.449219 36.367188 13.550781 36.464844 13.550781 36.589844 L 13.550781 37.785156 C 13.550781 37.910156 13.449219 38.007812 13.324219 38.007812 L 12.234375 38.007812 C 12.109375 38.007812 12.011719 37.910156 12.011719 37.785156 L 12.011719 36.589844 C 12.011719 36.464844 12.109375 36.367188 12.234375 36.367188 Z M 12.234375 36.367188 " fill-opacity="1" fill-rule="nonzero"/><path fill="#febf56" d="M 14.175781 36.367188 L 15.265625 36.367188 C 15.390625 36.367188 15.492188 36.464844 15.492188 36.589844 L 15.492188 37.785156 C 15.492188 37.910156 15.390625 38.007812 15.265625 38.007812 L 14.175781 38.007812 C 14.050781 38.007812 13.953125 37.910156 13.953125 37.785156 L 13.953125 36.589844 C 13.953125 36.464844 14.050781 36.367188 14.175781 36.367188 Z M 14.175781 36.367188 " fill-opacity="1" fill-rule="nonzero"/><path fill="#febf56" d="M 16.117188 36.367188 L 17.207031 36.367188 C 17.332031 36.367188 17.433594 36.464844 17.433594 36.589844 L 17.433594 37.785156 C 17.433594 37.910156 17.332031 38.007812 17.207031 38.007812 L 16.117188 38.007812 C 15.992188 38.007812 15.894531 37.910156 15.894531 37.785156 L 15.894531 36.589844 C 15.894531 36.464844 15.992188 36.367188 16.117188 36.367188 Z M 16.117188 36.367188 " fill-opacity="1" fill-rule="nonzero"/><path fill="#febf56" d="M 18.058594 36.367188 L 19.148438 36.367188 C 19.273438 36.367188 19.371094 36.464844 19.371094 36.589844 L 19.371094 37.785156 C 19.371094 37.910156 19.273438 38.007812 19.148438 38.007812 L 18.058594 38.007812 C 17.933594 38.007812 17.835938 37.910156 17.835938 37.785156 L 17.835938 36.589844 C 17.835938 36.464844 17.933594 36.367188 18.058594 36.367188 Z M 18.058594 36.367188 " fill-opacity="1" fill-rule="nonzero"/><path fill="#422a2a" d="M 9.511719 38.890625 L 19.921875 38.890625 C 20.03125 38.890625 20.109375 38.976562 20.109375 39.074219 C 20.109375 39.179688 20.023438 39.257812 19.921875 39.257812 L 9.511719 39.257812 C 9.40625 39.257812 9.328125 39.171875 9.328125 39.074219 C 9.328125 38.976562 9.414062 38.890625 9.511719 38.890625 Z M 9.511719 38.890625 " fill-opacity="1" fill-rule="nonzero"/><path fill="#422a2a" d="M 9.511719 39.683594 L 19.921875 39.683594 C 20.03125 39.683594 20.109375 39.769531 20.109375 39.867188 C 20.109375 39.972656 20.023438 40.050781 19.921875 40.050781 L 9.511719 40.050781 C 9.40625 40.050781 9.328125 39.964844 9.328125 39.867188 C 9.328125 39.769531 9.414062 39.683594 9.511719 39.683594 Z M 9.511719 39.683594 " fill-opacity="1" fill-rule="nonzero"/><path fill="#422a2a" d="M 25.074219 33.808594 C 25.058594 33.808594 25.039062 33.800781 25.027344 33.789062 L 24.5 33.265625 L 23.972656 33.789062 C 23.945312 33.816406 23.90625 33.816406 23.886719 33.789062 L 23.355469 33.265625 L 22.828125 33.789062 C 22.800781 33.816406 22.761719 33.816406 22.742188 33.789062 L 22.214844 33.265625 L 21.6875 33.789062 C 21.660156 33.816406 21.621094 33.816406 21.601562 33.789062 L 21.074219 33.265625 L 20.542969 33.789062 C 20.519531 33.816406 20.476562 33.816406 20.457031 33.789062 L 19.929688 33.265625 L 19.402344 33.789062 C 19.375 33.816406 19.335938 33.816406 19.316406 33.789062 L 18.789062 33.265625 L 18.261719 33.789062 C 18.234375 33.816406 18.195312 33.816406 18.175781 33.789062 L 17.644531 33.265625 L 17.117188 33.789062 C 17.089844 33.816406 17.050781 33.816406 17.03125 33.789062 L 16.503906 33.265625 L 15.976562 33.789062 C 15.949219 33.816406 15.910156 33.816406 15.890625 33.789062 L 15.363281 33.265625 L 14.832031 33.789062 C 14.808594 33.816406 14.769531 33.816406 14.746094 33.789062 L 14.21875 33.265625 L 13.691406 33.789062 C 13.664062 33.816406 13.625 33.816406 13.605469 33.789062 L 13.078125 33.265625 L 12.550781 33.789062 C 12.523438 33.816406 12.484375 33.816406 12.464844 33.789062 L 11.933594 33.265625 L 11.40625 33.789062 C 11.382812 33.816406 11.339844 33.816406 11.320312 33.789062 L 10.792969 33.265625 L 10.265625 33.789062 C 10.238281 33.816406 10.199219 33.816406 10.179688 33.789062 L 9.652344 33.265625 L 9.125 33.789062 C 9.097656 33.816406 9.058594 33.816406 9.039062 33.789062 L 8.507812 33.265625 L 7.980469 33.789062 C 7.953125 33.816406 7.914062 33.816406 7.894531 33.789062 L 7.367188 33.265625 L 6.839844 33.789062 C 6.8125 33.816406 6.773438 33.816406 6.753906 33.789062 L 6.226562 33.265625 L 5.695312 33.789062 C 5.671875 33.816406 5.628906 33.816406 5.609375 33.789062 L 5.082031 33.265625 L 4.554688 33.789062 C 4.527344 33.816406 4.488281 33.816406 4.46875 33.789062 L 3.894531 33.226562 C 3.882812 33.210938 3.875 33.199219 3.875 33.179688 C 3.875 33.160156 3.882812 33.148438 3.894531 33.132812 L 4.421875 32.609375 L 3.894531 32.085938 C 3.882812 32.074219 3.875 32.0625 3.875 32.042969 C 3.875 32.023438 3.882812 32.007812 3.894531 31.996094 L 4.421875 31.472656 L 3.894531 30.949219 C 3.882812 30.9375 3.875 30.921875 3.875 30.902344 C 3.875 30.882812 3.882812 30.871094 3.894531 30.859375 L 4.421875 30.335938 L 3.894531 29.8125 C 3.882812 29.796875 3.875 29.785156 3.875 29.765625 C 3.875 29.746094 3.882812 29.730469 3.894531 29.71875 L 4.46875 29.15625 C 4.496094 29.128906 4.535156 29.128906 4.554688 29.15625 L 5.082031 29.679688 L 5.609375 29.15625 C 5.636719 29.128906 5.675781 29.128906 5.695312 29.15625 L 6.226562 29.679688 L 6.753906 29.15625 C 6.78125 29.128906 6.820312 29.128906 6.839844 29.15625 L 7.367188 29.679688 L 7.894531 29.15625 C 7.921875 29.128906 7.960938 29.128906 7.980469 29.15625 L 8.507812 29.679688 L 9.039062 29.15625 C 9.0625 29.128906 9.101562 29.128906 9.125 29.15625 L 9.652344 29.679688 L 10.179688 29.15625 C 10.207031 29.128906 10.246094 29.128906 10.265625 29.15625 L 10.792969 29.679688 L 11.320312 29.15625 C 11.347656 29.128906 11.386719 29.128906 11.40625 29.15625 L 11.933594 29.679688 L 12.464844 29.15625 C 12.488281 29.128906 12.53125 29.128906 12.550781 29.15625 L 13.078125 29.679688 L 13.605469 29.15625 C 13.632812 29.128906 13.671875 29.128906 13.691406 29.15625 L 14.21875 29.679688 L 14.746094 29.15625 C 14.773438 29.128906 14.8125 29.128906 14.832031 29.15625 L 15.363281 29.679688 L 15.890625 29.15625 C 15.917969 29.128906 15.957031 29.128906 15.976562 29.15625 L 16.503906 29.679688 L 17.03125 29.15625 C 17.058594 29.128906 17.097656 29.128906 17.117188 29.15625 L 17.644531 29.679688 L 18.175781 29.15625 C 18.199219 29.128906 18.242188 29.128906 18.261719 29.15625 L 18.789062 29.679688 L 19.316406 29.15625 C 19.34375 29.128906 19.382812 29.128906 19.402344 29.15625 L 19.929688 29.679688 L 20.457031 29.15625 C 20.484375 29.128906 20.523438 29.128906 20.542969 29.15625 L 21.074219 29.679688 L 21.601562 29.15625 C 21.628906 29.128906 21.667969 29.128906 21.6875 29.15625 L 22.214844 29.679688 L 22.742188 29.15625 C 22.769531 29.128906 22.808594 29.128906 22.828125 29.15625 L 23.355469 29.679688 L 23.886719 29.15625 C 23.910156 29.128906 23.949219 29.128906 23.972656 29.15625 L 24.5 29.679688 L 25.027344 29.15625 C 25.054688 29.128906 25.09375 29.128906 25.113281 29.15625 L 25.6875 29.71875 C 25.699219 29.730469 25.707031 29.746094 25.707031 29.765625 C 25.707031 29.785156 25.699219 29.796875 25.6875 29.8125 L 25.160156 30.335938 L 25.6875 30.859375 C 25.699219 30.871094 25.707031 30.882812 25.707031 30.902344 C 25.707031 30.921875 25.699219 30.9375 25.6875 30.949219 L 25.160156 31.472656 L 25.6875 31.996094 C 25.699219 32.007812 25.707031 32.023438 25.707031 32.042969 C 25.707031 32.0625 25.699219 32.074219 25.6875 32.085938 L 25.160156 32.609375 L 25.6875 33.132812 C 25.699219 33.148438 25.707031 33.160156 25.707031 33.179688 C 25.707031 33.199219 25.699219 33.210938 25.6875 33.226562 L 25.113281 33.789062 C 25.105469 33.800781 25.085938 33.808594 25.074219 33.808594 Z M 24.585938 33.179688 L 25.074219 33.65625 L 25.5625 33.179688 L 25.074219 32.703125 Z M 23.4375 33.179688 L 23.925781 33.65625 L 24.414062 33.179688 L 23.925781 32.703125 Z M 13.085938 33.179688 L 13.574219 33.65625 L 14.0625 33.179688 L 13.574219 32.703125 Z M 9.632812 33.179688 L 10.121094 33.65625 L 10.609375 33.179688 L 10.121094 32.703125 Z M 5.03125 33.179688 L 5.519531 33.65625 L 6.007812 33.179688 L 5.519531 32.703125 Z M 22.289062 33.179688 L 22.777344 33.65625 L 23.265625 33.179688 L 22.777344 32.703125 Z M 21.136719 33.179688 L 21.628906 33.65625 L 22.117188 33.179688 L 21.628906 32.703125 Z M 18.835938 33.179688 L 19.324219 33.65625 L 19.8125 33.179688 L 19.324219 32.703125 Z M 17.6875 33.179688 L 18.175781 33.65625 L 18.664062 33.179688 L 18.175781 32.703125 Z M 16.535156 33.179688 L 17.027344 33.65625 L 17.515625 33.179688 L 17.027344 32.703125 Z M 11.933594 33.179688 L 12.425781 33.65625 L 12.914062 33.179688 L 12.425781 32.703125 Z M 10.785156 33.179688 L 11.273438 33.65625 L 11.765625 33.179688 L 11.273438 32.703125 Z M 7.335938 33.179688 L 7.824219 33.65625 L 8.3125 33.179688 L 7.824219 32.703125 Z M 6.183594 33.179688 L 6.671875 33.65625 L 7.164062 33.179688 L 6.671875 32.703125 Z M 19.984375 33.179688 L 20.472656 33.65625 L 20.960938 33.179688 L 20.472656 32.703125 Z M 14.234375 33.179688 L 14.722656 33.65625 L 15.210938 33.179688 L 14.722656 32.703125 Z M 8.484375 33.179688 L 8.972656 33.65625 L 9.460938 33.179688 L 8.972656 32.703125 Z M 15.386719 33.179688 L 15.875 33.65625 L 16.367188 33.179688 L 15.875 32.703125 Z M 3.882812 33.179688 L 4.371094 33.65625 L 4.859375 33.179688 L 4.371094 32.703125 Z M 21.714844 32.617188 L 22.203125 33.09375 L 22.691406 32.617188 L 22.203125 32.140625 Z M 17.113281 32.617188 L 17.601562 33.09375 L 18.089844 32.617188 L 17.601562 32.140625 Z M 13.660156 32.617188 L 14.148438 33.09375 L 14.636719 32.617188 L 14.148438 32.140625 Z M 9.058594 32.617188 L 9.546875 33.09375 L 10.035156 32.617188 L 9.546875 32.140625 Z M 12.511719 32.617188 L 13 33.09375 L 13.488281 32.617188 L 13 32.140625 Z M 18.261719 32.617188 L 18.75 33.09375 L 19.238281 32.617188 L 18.75 32.140625 Z M 15.960938 32.617188 L 16.453125 33.09375 L 16.941406 32.617188 L 16.453125 32.140625 Z M 24.011719 32.617188 L 24.5 33.09375 L 24.988281 32.617188 L 24.5 32.140625 Z M 19.410156 32.617188 L 19.898438 33.09375 L 20.386719 32.617188 L 19.898438 32.140625 Z M 14.808594 32.617188 L 15.296875 33.09375 L 15.785156 32.617188 L 15.296875 32.140625 Z M 4.457031 32.617188 L 4.945312 33.09375 L 5.433594 32.617188 L 4.945312 32.140625 Z M 22.863281 32.617188 L 23.351562 33.09375 L 23.839844 32.617188 L 23.351562 32.140625 Z M 11.359375 32.617188 L 11.851562 33.09375 L 12.339844 32.617188 L 11.851562 32.140625 Z M 6.757812 32.617188 L 7.25 33.09375 L 7.738281 32.617188 L 7.25 32.140625 Z M 5.609375 32.617188 L 6.097656 33.09375 L 6.589844 32.617188 L 6.097656 32.140625 Z M 7.910156 32.617188 L 8.398438 33.09375 L 8.886719 32.617188 L 8.398438 32.140625 Z M 20.5625 32.617188 L 21.054688 33.09375 L 21.542969 32.617188 L 21.054688 32.140625 Z M 10.207031 32.617188 L 10.695312 33.09375 L 11.183594 32.617188 L 10.695312 32.140625 Z M 18.835938 32.046875 L 19.324219 32.527344 L 19.8125 32.046875 L 19.324219 31.570312 Z M 17.6875 32.046875 L 18.175781 32.527344 L 18.664062 32.046875 L 18.175781 31.570312 Z M 15.382812 32.046875 L 15.871094 32.527344 L 16.359375 32.046875 L 15.871094 31.570312 Z M 7.335938 32.046875 L 7.824219 32.527344 L 8.3125 32.046875 L 7.824219 31.570312 Z M 5.03125 32.046875 L 5.519531 32.527344 L 6.007812 32.046875 L 5.519531 31.570312 Z M 3.882812 32.046875 L 4.371094 32.527344 L 4.859375 32.046875 L 4.371094 31.570312 Z M 22.289062 32.046875 L 22.777344 32.527344 L 23.265625 32.046875 L 22.777344 31.570312 Z M 21.136719 32.046875 L 21.628906 32.527344 L 22.117188 32.046875 L 21.628906 31.570312 Z M 16.535156 32.046875 L 17.027344 32.527344 L 17.515625 32.046875 L 17.027344 31.570312 Z M 13.085938 32.046875 L 13.574219 32.527344 L 14.0625 32.046875 L 13.574219 31.570312 Z M 10.785156 32.046875 L 11.273438 32.527344 L 11.765625 32.046875 L 11.273438 31.570312 Z M 9.632812 32.046875 L 10.121094 32.527344 L 10.609375 32.046875 L 10.121094 31.570312 Z M 6.183594 32.046875 L 6.671875 32.527344 L 7.164062 32.046875 L 6.671875 31.570312 Z M 24.585938 32.046875 L 25.074219 32.527344 L 25.5625 32.046875 L 25.074219 31.570312 Z M 19.984375 32.046875 L 20.472656 32.527344 L 20.960938 32.046875 L 20.472656 31.570312 Z M 14.234375 32.046875 L 14.722656 32.527344 L 15.210938 32.046875 L 14.722656 31.570312 Z M 8.484375 32.046875 L 8.972656 32.527344 L 9.460938 32.046875 L 8.972656 31.570312 Z M 11.933594 32.046875 L 12.425781 32.527344 L 12.914062 32.046875 L 12.425781 31.570312 Z M 23.4375 32.046875 L 23.925781 32.527344 L 24.414062 32.046875 L 23.925781 31.570312 Z M 22.863281 31.484375 L 23.351562 31.964844 L 23.839844 31.484375 L 23.351562 31.007812 Z M 18.261719 31.484375 L 18.75 31.964844 L 19.238281 31.484375 L 18.75 31.007812 Z M 15.960938 31.484375 L 16.453125 31.964844 L 16.941406 31.484375 L 16.453125 31.007812 Z M 6.757812 31.484375 L 7.25 31.964844 L 7.738281 31.484375 L 7.25 31.007812 Z M 4.457031 31.484375 L 4.945312 31.964844 L 5.433594 31.484375 L 4.945312 31.007812 Z M 24.011719 31.484375 L 24.5 31.964844 L 24.988281 31.484375 L 24.5 31.007812 Z M 20.5625 31.484375 L 21.054688 31.964844 L 21.542969 31.484375 L 21.054688 31.007812 Z M 19.410156 31.484375 L 19.898438 31.964844 L 20.386719 31.484375 L 19.898438 31.007812 Z M 13.660156 31.484375 L 14.148438 31.964844 L 14.636719 31.484375 L 14.148438 31.007812 Z M 12.511719 31.484375 L 13 31.964844 L 13.488281 31.484375 L 13 31.007812 Z M 10.207031 31.484375 L 10.695312 31.964844 L 11.183594 31.484375 L 10.695312 31.007812 Z M 9.058594 31.484375 L 9.546875 31.964844 L 10.035156 31.484375 L 9.546875 31.007812 Z M 21.714844 31.484375 L 22.203125 31.964844 L 22.691406 31.484375 L 22.203125 31.007812 Z M 11.359375 31.484375 L 11.851562 31.964844 L 12.339844 31.484375 L 11.851562 31.007812 Z M 14.808594 31.484375 L 15.296875 31.964844 L 15.785156 31.484375 L 15.296875 31.007812 Z M 7.910156 31.484375 L 8.398438 31.964844 L 8.886719 31.484375 L 8.398438 31.007812 Z M 17.113281 31.484375 L 17.601562 31.964844 L 18.089844 31.484375 L 17.601562 31.007812 Z M 5.609375 31.484375 L 6.097656 31.964844 L 6.589844 31.484375 L 6.097656 31.007812 Z M 23.4375 30.917969 L 23.925781 31.394531 L 24.414062 30.917969 L 23.925781 30.4375 Z M 15.382812 30.917969 L 15.871094 31.394531 L 16.359375 30.917969 L 15.871094 30.4375 Z M 5.03125 30.917969 L 5.519531 31.394531 L 6.007812 30.917969 L 5.519531 30.4375 Z M 3.882812 30.917969 L 4.371094 31.394531 L 4.859375 30.917969 L 4.371094 30.4375 Z M 22.289062 30.917969 L 22.777344 31.394531 L 23.265625 30.917969 L 22.777344 30.4375 Z M 21.136719 30.917969 L 21.628906 31.394531 L 22.117188 30.917969 L 21.628906 30.4375 Z M 18.835938 30.917969 L 19.324219 31.394531 L 19.8125 30.917969 L 19.324219 30.4375 Z M 17.6875 30.917969 L 18.175781 31.394531 L 18.664062 30.917969 L 18.175781 30.4375 Z M 16.535156 30.917969 L 17.027344 31.394531 L 17.515625 30.917969 L 17.027344 30.4375 Z M 11.933594 30.917969 L 12.425781 31.394531 L 12.914062 30.917969 L 12.425781 30.4375 Z M 10.785156 30.917969 L 11.273438 31.394531 L 11.765625 30.917969 L 11.273438 30.4375 Z M 9.632812 30.917969 L 10.121094 31.394531 L 10.609375 30.917969 L 10.121094 30.4375 Z M 7.335938 30.917969 L 7.824219 31.394531 L 8.3125 30.917969 L 7.824219 30.4375 Z M 6.183594 30.917969 L 6.671875 31.394531 L 7.164062 30.917969 L 6.671875 30.4375 Z M 19.984375 30.917969 L 20.472656 31.394531 L 20.960938 30.917969 L 20.472656 30.4375 Z M 14.234375 30.917969 L 14.722656 31.394531 L 15.210938 30.917969 L 14.722656 30.4375 Z M 8.484375 30.917969 L 8.972656 31.394531 L 9.460938 30.917969 L 8.972656 30.4375 Z M 24.585938 30.917969 L 25.074219 31.394531 L 25.5625 30.917969 L 25.074219 30.4375 Z M 13.085938 30.917969 L 13.574219 31.394531 L 14.0625 30.917969 L 13.574219 30.4375 Z M 24.011719 30.355469 L 24.5 30.832031 L 24.988281 30.355469 L 24.5 29.875 Z M 22.863281 30.355469 L 23.351562 30.832031 L 23.839844 30.355469 L 23.351562 29.875 Z M 15.960938 30.355469 L 16.453125 30.832031 L 16.941406 30.355469 L 16.453125 29.875 Z M 12.511719 30.355469 L 13 30.832031 L 13.488281 30.355469 L 13 29.875 Z M 5.609375 30.355469 L 6.097656 30.832031 L 6.589844 30.355469 L 6.097656 29.875 Z M 4.457031 30.355469 L 4.945312 30.832031 L 5.433594 30.355469 L 4.945312 29.875 Z M 20.5625 30.355469 L 21.054688 30.832031 L 21.542969 30.355469 L 21.054688 29.875 Z M 19.410156 30.355469 L 19.898438 30.832031 L 20.386719 30.355469 L 19.898438 29.875 Z M 13.660156 30.355469 L 14.148438 30.832031 L 14.636719 30.355469 L 14.148438 29.875 Z M 10.207031 30.355469 L 10.695312 30.832031 L 11.183594 30.355469 L 10.695312 29.875 Z M 9.058594 30.355469 L 9.546875 30.832031 L 10.035156 30.355469 L 9.546875 29.875 Z M 21.714844 30.355469 L 22.203125 30.832031 L 22.691406 30.355469 L 22.203125 29.875 Z M 17.113281 30.355469 L 17.601562 30.832031 L 18.089844 30.355469 L 17.601562 29.875 Z M 11.359375 30.355469 L 11.851562 30.832031 L 12.339844 30.355469 L 11.851562 29.875 Z M 6.757812 30.355469 L 7.25 30.832031 L 7.738281 30.355469 L 7.25 29.875 Z M 14.808594 30.355469 L 15.296875 30.832031 L 15.785156 30.355469 L 15.296875 29.875 Z M 18.261719 30.355469 L 18.75 30.832031 L 19.238281 30.355469 L 18.75 29.875 Z M 7.910156 30.355469 L 8.398438 30.832031 L 8.886719 30.355469 L 8.398438 29.875 Z M 24.585938 29.785156 L 25.074219 30.261719 L 25.5625 29.785156 L 25.074219 29.308594 Z M 23.4375 29.785156 L 23.925781 30.261719 L 24.414062 29.785156 L 23.925781 29.308594 Z M 15.382812 29.785156 L 15.871094 30.261719 L 16.359375 29.785156 L 15.871094 29.308594 Z M 13.085938 29.785156 L 13.574219 30.261719 L 14.0625 29.785156 L 13.574219 29.308594 Z M 5.03125 29.785156 L 5.519531 30.261719 L 6.007812 29.785156 L 5.519531 29.308594 Z M 22.289062 29.785156 L 22.777344 30.261719 L 23.265625 29.785156 L 22.777344 29.308594 Z M 21.136719 29.785156 L 21.628906 30.261719 L 22.117188 29.785156 L 21.628906 29.308594 Z M 18.835938 29.785156 L 19.324219 30.261719 L 19.8125 29.785156 L 19.324219 29.308594 Z M 17.6875 29.785156 L 18.175781 30.261719 L 18.664062 29.785156 L 18.175781 29.308594 Z M 16.535156 29.785156 L 17.027344 30.261719 L 17.515625 29.785156 L 17.027344 29.308594 Z M 11.933594 29.785156 L 12.425781 30.261719 L 12.914062 29.785156 L 12.425781 29.308594 Z M 10.785156 29.785156 L 11.273438 30.261719 L 11.765625 29.785156 L 11.273438 29.308594 Z M 9.632812 29.785156 L 10.121094 30.261719 L 10.609375 29.785156 L 10.121094 29.308594 Z M 7.335938 29.785156 L 7.824219 30.261719 L 8.3125 29.785156 L 7.824219 29.308594 Z M 6.183594 29.785156 L 6.671875 30.261719 L 7.164062 29.785156 L 6.671875 29.308594 Z M 19.984375 29.785156 L 20.472656 30.261719 L 20.960938 29.785156 L 20.472656 29.308594 Z M 8.484375 29.785156 L 8.972656 30.261719 L 9.460938 29.785156 L 8.972656 29.308594 Z M 3.882812 29.785156 L 4.371094 30.261719 L 4.859375 29.785156 L 4.371094 29.308594 Z M 14.234375 29.785156 L 14.722656 30.261719 L 15.210938 29.785156 L 14.722656 29.308594 Z M 14.234375 29.785156 " fill-opacity="1" fill-rule="nonzero"/><g fill="#000000" fill-opacity="1"><g transform="translate(31.499171, 41.821392)"><g><path d="M 2.140625 -16.40625 C 2.140625 -20.863281 4.359375 -23.09375 8.796875 -23.09375 C 10.609375 -23.09375 12.054688 -22.601562 13.140625 -21.625 C 14.046875 -20.789062 14.5 -19.578125 14.5 -17.984375 C 14.5 -15.734375 14.878906 -14.140625 15.640625 -13.203125 C 15.609375 -13.085938 15.515625 -12.984375 15.359375 -12.890625 C 15.203125 -12.796875 15.023438 -12.75 14.828125 -12.75 C 14.628906 -12.75 14.441406 -12.765625 14.265625 -12.796875 C 14.097656 -12.828125 13.941406 -12.867188 13.796875 -12.921875 C 13.660156 -12.972656 13.523438 -13.035156 13.390625 -13.109375 C 13.265625 -13.179688 13.144531 -13.253906 13.03125 -13.328125 C 12.925781 -13.410156 12.828125 -13.488281 12.734375 -13.5625 C 12.640625 -13.644531 12.554688 -13.71875 12.484375 -13.78125 C 12.421875 -13.851562 12.367188 -13.914062 12.328125 -13.96875 C 12.285156 -14.03125 12.25 -14.070312 12.21875 -14.09375 C 12.195312 -14.125 12.171875 -14.113281 12.140625 -14.0625 C 12.117188 -14.019531 12.054688 -13.9375 11.953125 -13.8125 C 11.847656 -13.6875 11.632812 -13.515625 11.3125 -13.296875 C 11 -13.085938 10.703125 -12.984375 10.421875 -12.984375 C 10.148438 -12.984375 9.925781 -12.992188 9.75 -13.015625 C 9.582031 -13.046875 9.441406 -13.082031 9.328125 -13.125 C 9.222656 -13.175781 9.128906 -13.234375 9.046875 -13.296875 C 8.960938 -13.367188 8.898438 -13.429688 8.859375 -13.484375 C 8.828125 -13.535156 8.800781 -13.59375 8.78125 -13.65625 C 8.75 -13.738281 8.734375 -13.816406 8.734375 -13.890625 C 8.734375 -13.960938 8.863281 -14.226562 9.125 -14.6875 C 9.914062 -16.070312 10.3125 -17.140625 10.3125 -17.890625 C 10.3125 -19.078125 10.054688 -19.8125 9.546875 -20.09375 C 9.328125 -20.21875 9.019531 -20.28125 8.625 -20.28125 C 8.238281 -20.28125 7.894531 -20.1875 7.59375 -20 C 7.300781 -19.820312 7.085938 -19.554688 6.953125 -19.203125 C 6.722656 -18.628906 6.609375 -17.847656 6.609375 -16.859375 C 6.609375 -15.878906 6.664062 -15.039062 6.78125 -14.34375 C 6.90625 -13.65625 7.046875 -13.132812 7.203125 -12.78125 C 7.367188 -12.4375 7.53125 -12.160156 7.6875 -11.953125 C 7.851562 -11.742188 7.992188 -11.578125 8.109375 -11.453125 C 8.222656 -11.328125 8.28125 -11.222656 8.28125 -11.140625 C 8.28125 -11.066406 8.226562 -10.984375 8.125 -10.890625 C 8.019531 -10.796875 7.882812 -10.648438 7.71875 -10.453125 C 7.5625 -10.265625 7.40625 -10.003906 7.25 -9.671875 C 6.882812 -8.878906 6.703125 -7.570312 6.703125 -5.75 L 6.703125 -4.953125 C 6.703125 -3.703125 6.742188 -2.957031 6.828125 -2.71875 C 6.921875 -2.476562 7 -2.285156 7.0625 -2.140625 C 7.125 -1.992188 7.191406 -1.882812 7.265625 -1.8125 C 7.347656 -1.738281 7.441406 -1.671875 7.546875 -1.609375 C 7.722656 -1.460938 7.972656 -1.390625 8.296875 -1.390625 C 8.628906 -1.390625 8.90625 -1.472656 9.125 -1.640625 C 9.34375 -1.804688 9.503906 -2 9.609375 -2.21875 C 9.710938 -2.4375 9.800781 -2.722656 9.875 -3.078125 C 9.945312 -3.523438 9.984375 -4.160156 9.984375 -4.984375 C 9.984375 -5.816406 9.894531 -6.472656 9.71875 -6.953125 C 9.550781 -7.441406 9.203125 -7.90625 8.671875 -8.34375 C 8.671875 -8.59375 8.875 -8.78125 9.28125 -8.90625 C 9.4375 -8.957031 9.660156 -8.984375 9.953125 -8.984375 C 10.253906 -8.984375 10.585938 -8.90625 10.953125 -8.75 C 11.316406 -8.59375 11.585938 -8.4375 11.765625 -8.28125 L 12.015625 -8.046875 C 12.296875 -8.304688 12.660156 -8.523438 13.109375 -8.703125 C 13.554688 -8.890625 13.96875 -8.984375 14.34375 -8.984375 C 14.726562 -8.984375 15.015625 -8.929688 15.203125 -8.828125 C 15.390625 -8.722656 15.507812 -8.5625 15.5625 -8.34375 C 15.09375 -7.945312 14.78125 -7.519531 14.625 -7.0625 C 14.46875 -6.601562 14.390625 -5.835938 14.390625 -4.765625 C 14.390625 -3.703125 14.519531 -2.851562 14.78125 -2.21875 C 15.050781 -1.582031 15.535156 -0.96875 16.234375 -0.375 C 16.234375 -0.0507812 16.046875 0.210938 15.671875 0.421875 C 15.304688 0.628906 14.90625 0.734375 14.46875 0.734375 C 14.03125 0.734375 13.597656 0.59375 13.171875 0.3125 C 12.742188 0.0390625 12.394531 -0.332031 12.125 -0.8125 C 11.070312 0.644531 9.632812 1.375 7.8125 1.375 C 5.988281 1.375 4.585938 0.8125 3.609375 -0.3125 C 2.628906 -1.445312 2.140625 -3.21875 2.140625 -5.625 C 2.140625 -8.238281 1.671875 -9.945312 0.734375 -10.75 C 0.617188 -10.84375 0.5625 -10.929688 0.5625 -11.015625 C 0.5625 -11.109375 0.613281 -11.203125 0.71875 -11.296875 C 0.832031 -11.390625 0.96875 -11.519531 1.125 -11.6875 C 1.28125 -11.863281 1.4375 -12.109375 1.59375 -12.421875 C 1.957031 -13.160156 2.140625 -14.488281 2.140625 -16.40625 Z M 2.140625 -16.40625 "/></g></g></g><g fill="#000000" fill-opacity="1"><g transform="translate(47.798933, 41.821392)"><g><path d="M 14.234375 -21.21875 C 14.992188 -22.238281 15.835938 -22.75 16.765625 -22.75 C 17.203125 -22.75 17.546875 -22.675781 17.796875 -22.53125 C 18.054688 -22.382812 18.207031 -22.242188 18.25 -22.109375 L 18.3125 -21.890625 C 17.644531 -21.253906 17.179688 -20.566406 16.921875 -19.828125 C 16.671875 -19.085938 16.546875 -18.125 16.546875 -16.9375 C 16.546875 -15.757812 16.585938 -14.804688 16.671875 -14.078125 C 16.765625 -13.359375 16.875 -12.832031 17 -12.5 C 17.125 -12.175781 17.242188 -11.921875 17.359375 -11.734375 C 17.484375 -11.554688 17.585938 -11.414062 17.671875 -11.3125 C 17.765625 -11.21875 17.8125 -11.125 17.8125 -11.03125 C 17.8125 -10.945312 17.765625 -10.859375 17.671875 -10.765625 C 17.585938 -10.671875 17.484375 -10.53125 17.359375 -10.34375 C 17.242188 -10.164062 17.125 -9.921875 17 -9.609375 C 16.695312 -8.878906 16.546875 -7.75 16.546875 -6.21875 C 16.546875 -4.6875 16.390625 -3.445312 16.078125 -2.5 C 15.765625 -1.5625 15.300781 -0.8125 14.6875 -0.25 C 13.507812 0.820312 11.78125 1.359375 9.5 1.359375 C 5.875 1.359375 3.625 0.0703125 2.75 -2.5 C 2.425781 -3.445312 2.265625 -4.472656 2.265625 -5.578125 C 2.265625 -6.679688 2.222656 -7.550781 2.140625 -8.1875 C 2.054688 -8.832031 1.945312 -9.304688 1.8125 -9.609375 C 1.6875 -9.921875 1.5625 -10.164062 1.4375 -10.34375 C 1.320312 -10.53125 1.21875 -10.671875 1.125 -10.765625 C 1.039062 -10.859375 1 -10.945312 1 -11.03125 C 1 -11.125 1.039062 -11.21875 1.125 -11.3125 C 1.21875 -11.414062 1.320312 -11.554688 1.4375 -11.734375 C 1.5625 -11.921875 1.691406 -12.179688 1.828125 -12.515625 C 2.117188 -13.296875 2.265625 -14.523438 2.265625 -16.203125 C 2.265625 -17.878906 2.132812 -19.085938 1.875 -19.828125 C 1.625 -20.566406 1.171875 -21.253906 0.515625 -21.890625 C 0.515625 -22.242188 0.78125 -22.5 1.3125 -22.65625 C 1.519531 -22.71875 1.773438 -22.75 2.078125 -22.75 C 2.378906 -22.75 2.695312 -22.691406 3.03125 -22.578125 C 3.363281 -22.472656 3.640625 -22.347656 3.859375 -22.203125 C 4.328125 -21.910156 4.707031 -21.582031 5 -21.21875 C 5.757812 -22.238281 6.664062 -22.75 7.71875 -22.75 C 8.15625 -22.75 8.5 -22.675781 8.75 -22.53125 C 9.007812 -22.382812 9.160156 -22.242188 9.203125 -22.109375 L 9.265625 -21.890625 C 8.597656 -21.253906 8.132812 -20.566406 7.875 -19.828125 C 7.625 -19.085938 7.5 -18.070312 7.5 -16.78125 C 7.5 -15.488281 7.554688 -14.441406 7.671875 -13.640625 C 7.785156 -12.835938 7.910156 -12.320312 8.046875 -12.09375 C 8.191406 -11.863281 8.320312 -11.675781 8.4375 -11.53125 C 8.550781 -11.382812 8.609375 -11.265625 8.609375 -11.171875 C 8.609375 -11.085938 8.550781 -10.976562 8.4375 -10.84375 C 8.320312 -10.707031 8.191406 -10.535156 8.046875 -10.328125 C 7.679688 -9.742188 7.5 -8.535156 7.5 -6.703125 L 7.5 -6.15625 C 7.5 -4.457031 7.597656 -3.394531 7.796875 -2.96875 C 7.960938 -2.601562 8.109375 -2.375 8.234375 -2.28125 C 8.367188 -2.1875 8.503906 -2.101562 8.640625 -2.03125 C 8.890625 -1.90625 9.179688 -1.84375 9.515625 -1.84375 C 9.859375 -1.84375 10.125 -1.863281 10.3125 -1.90625 C 10.5 -1.957031 10.664062 -2.015625 10.8125 -2.078125 C 10.957031 -2.140625 11.082031 -2.234375 11.1875 -2.359375 C 11.289062 -2.492188 11.378906 -2.617188 11.453125 -2.734375 C 11.523438 -2.847656 11.582031 -3.007812 11.625 -3.21875 C 11.675781 -3.4375 11.71875 -3.628906 11.75 -3.796875 C 11.78125 -3.972656 11.800781 -4.207031 11.8125 -4.5 C 11.832031 -4.925781 11.84375 -5.46875 11.84375 -6.125 L 11.84375 -6.5625 C 11.84375 -8.457031 11.65625 -9.707031 11.28125 -10.3125 C 11.144531 -10.519531 11.019531 -10.691406 10.90625 -10.828125 C 10.789062 -10.972656 10.734375 -11.085938 10.734375 -11.171875 C 10.734375 -11.265625 10.789062 -11.382812 10.90625 -11.53125 C 11.019531 -11.675781 11.144531 -11.863281 11.28125 -12.09375 C 11.414062 -12.320312 11.539062 -12.835938 11.65625 -13.640625 C 11.78125 -14.441406 11.84375 -15.488281 11.84375 -16.78125 C 11.84375 -18.082031 11.726562 -19.101562 11.5 -19.84375 C 11.28125 -20.582031 10.875 -21.265625 10.28125 -21.890625 C 10.28125 -22.234375 10.550781 -22.488281 11.09375 -22.65625 C 11.300781 -22.71875 11.546875 -22.75 11.828125 -22.75 C 12.773438 -22.75 13.578125 -22.238281 14.234375 -21.21875 Z M 14.234375 -21.21875 "/></g></g></g><g fill="#000000" fill-opacity="1"><g transform="translate(66.531265, 41.821392)"><g><path d="M 14.28125 -0.796875 C 13.769531 0.222656 12.988281 0.734375 11.9375 0.734375 C 11.382812 0.734375 11.007812 0.664062 10.8125 0.53125 C 10.5 0.289062 10.296875 0.0703125 10.203125 -0.125 C 10.816406 -0.863281 11.125 -1.800781 11.125 -2.9375 C 11.125 -3.914062 11.054688 -4.632812 10.921875 -5.09375 C 10.796875 -5.550781 10.648438 -6.054688 10.484375 -6.609375 C 10.328125 -7.160156 10.179688 -7.703125 10.046875 -8.234375 L 9.953125 -8.234375 L 6.609375 -8.21875 C 6.554688 -7.96875 6.457031 -7.5625 6.3125 -7 C 6.164062 -6.4375 6.0625 -6.007812 6 -5.71875 C 5.800781 -4.863281 5.703125 -4.023438 5.703125 -3.203125 C 5.703125 -1.953125 6.054688 -0.925781 6.765625 -0.125 C 6.765625 -0.113281 6.757812 -0.0859375 6.75 -0.046875 C 6.738281 -0.00390625 6.703125 0.0664062 6.640625 0.171875 C 6.578125 0.273438 6.503906 0.363281 6.421875 0.4375 C 6.210938 0.632812 5.953125 0.734375 5.640625 0.734375 C 5.335938 0.734375 5.070312 0.675781 4.84375 0.5625 C 4.613281 0.457031 4.4375 0.332031 4.3125 0.1875 C 4.019531 -0.125 3.820312 -0.453125 3.71875 -0.796875 C 3.3125 -0.398438 2.820312 -0.046875 2.25 0.265625 C 1.675781 0.578125 1.179688 0.734375 0.765625 0.734375 C 0.0859375 0.734375 -0.25 0.476562 -0.25 -0.03125 L -0.25 -0.125 C 0.550781 -0.757812 1.160156 -1.429688 1.578125 -2.140625 C 1.992188 -2.859375 2.394531 -3.910156 2.78125 -5.296875 L 3.546875 -7.96875 C 2.953125 -7.820312 2.421875 -7.566406 1.953125 -7.203125 C 1.859375 -7.203125 1.769531 -7.273438 1.6875 -7.421875 C 1.601562 -7.566406 1.5625 -7.742188 1.5625 -7.953125 C 1.5625 -8.410156 1.898438 -8.8125 2.578125 -9.15625 C 2.398438 -9.21875 2.222656 -9.34375 2.046875 -9.53125 C 1.722656 -9.84375 1.5625 -10.101562 1.5625 -10.3125 C 1.5625 -10.519531 1.570312 -10.675781 1.59375 -10.78125 C 1.625 -10.882812 1.65625 -10.960938 1.6875 -11.015625 C 1.769531 -11.109375 1.859375 -11.164062 1.953125 -11.1875 C 2.554688 -10.71875 3.300781 -10.421875 4.1875 -10.296875 L 5.890625 -16.265625 C 6.265625 -17.609375 6.453125 -18.675781 6.453125 -19.46875 C 6.453125 -20.269531 6.195312 -21.070312 5.6875 -21.875 L 5.6875 -21.9375 C 5.6875 -22.476562 6.234375 -22.75 7.328125 -22.75 C 7.890625 -22.75 8.5 -22.390625 9.15625 -21.671875 C 9.300781 -21.503906 9.453125 -21.304688 9.609375 -21.078125 C 9.890625 -21.765625 10.441406 -22.265625 11.265625 -22.578125 C 11.609375 -22.691406 11.941406 -22.75 12.265625 -22.75 C 12.597656 -22.75 12.851562 -22.675781 13.03125 -22.53125 C 13.207031 -22.382812 13.332031 -22.164062 13.40625 -21.875 C 13.125 -21.0625 12.984375 -20.128906 12.984375 -19.078125 C 12.984375 -18.035156 13.070312 -17.109375 13.25 -16.296875 C 13.425781 -15.484375 13.644531 -14.71875 13.90625 -14 C 14.175781 -13.289062 14.429688 -12.769531 14.671875 -12.4375 C 14.910156 -12.101562 15.128906 -11.84375 15.328125 -11.65625 C 15.535156 -11.46875 15.695312 -11.328125 15.8125 -11.234375 C 15.9375 -11.140625 16 -11.050781 16 -10.96875 C 16 -10.882812 15.957031 -10.789062 15.875 -10.6875 C 15.800781 -10.582031 15.71875 -10.476562 15.625 -10.375 C 15.375 -10.082031 15.25 -9.5 15.25 -8.625 C 15.25 -6.976562 15.585938 -5.34375 16.265625 -3.71875 C 16.941406 -2.09375 17.734375 -0.894531 18.640625 -0.125 L 18.640625 -0.078125 C 18.640625 0.460938 18.15625 0.734375 17.1875 0.734375 C 16.226562 0.734375 15.257812 0.222656 14.28125 -0.796875 Z M 9.578125 -10.171875 C 8.796875 -13.347656 8.378906 -15.070312 8.328125 -15.34375 C 7.921875 -13.695312 7.503906 -11.972656 7.078125 -10.171875 C 7.578125 -10.171875 8.113281 -10.171875 8.6875 -10.171875 Z M 9.578125 -10.171875 "/></g></g></g><g fill="#000000" fill-opacity="1"><g transform="translate(84.89945, 41.821392)"><g><path d="M 4.796875 -0.796875 C 4.742188 -0.703125 4.625 -0.546875 4.4375 -0.328125 C 4.25 -0.109375 4.066406 0.0664062 3.890625 0.203125 C 3.410156 0.554688 2.929688 0.734375 2.453125 0.734375 C 1.972656 0.734375 1.601562 0.660156 1.34375 0.515625 C 1.09375 0.367188 0.953125 0.222656 0.921875 0.078125 L 0.859375 -0.140625 C 1.503906 -0.722656 1.957031 -1.445312 2.21875 -2.3125 C 2.488281 -3.175781 2.625 -4.171875 2.625 -5.296875 C 2.625 -6.429688 2.566406 -7.335938 2.453125 -8.015625 C 2.347656 -8.703125 2.21875 -9.207031 2.0625 -9.53125 C 1.90625 -9.863281 1.75 -10.128906 1.59375 -10.328125 C 1.4375 -10.523438 1.300781 -10.664062 1.1875 -10.75 C 1.082031 -10.84375 1.03125 -10.9375 1.03125 -11.03125 C 1.03125 -11.125 1.082031 -11.222656 1.1875 -11.328125 C 1.300781 -11.429688 1.4375 -11.578125 1.59375 -11.765625 C 1.75 -11.960938 1.90625 -12.234375 2.0625 -12.578125 C 2.4375 -13.398438 2.625 -14.648438 2.625 -16.328125 C 2.625 -18.015625 2.492188 -19.207031 2.234375 -19.90625 C 1.972656 -20.601562 1.515625 -21.265625 0.859375 -21.890625 C 0.859375 -22.242188 1.125 -22.5 1.65625 -22.65625 C 1.875 -22.71875 2.132812 -22.75 2.4375 -22.75 C 2.738281 -22.75 3.050781 -22.695312 3.375 -22.59375 C 3.695312 -22.488281 3.96875 -22.363281 4.1875 -22.21875 C 4.632812 -21.925781 4.992188 -21.617188 5.265625 -21.296875 C 5.316406 -21.429688 5.4375 -21.585938 5.625 -21.765625 C 5.820312 -21.953125 6.046875 -22.109375 6.296875 -22.234375 C 6.953125 -22.578125 7.691406 -22.75 8.515625 -22.75 C 9.347656 -22.75 9.96875 -22.734375 10.375 -22.703125 C 10.789062 -22.671875 11.203125 -22.617188 11.609375 -22.546875 C 12.015625 -22.472656 12.378906 -22.375 12.703125 -22.25 C 13.035156 -22.132812 13.347656 -21.976562 13.640625 -21.78125 C 13.929688 -21.59375 14.179688 -21.375 14.390625 -21.125 C 14.828125 -20.570312 15.082031 -19.984375 15.15625 -19.359375 C 15.226562 -18.742188 15.328125 -18.28125 15.453125 -17.96875 C 15.578125 -17.664062 15.695312 -17.445312 15.8125 -17.3125 C 16.132812 -16.96875 16.296875 -16.765625 16.296875 -16.703125 C 16.296875 -16.648438 16.242188 -16.566406 16.140625 -16.453125 C 16.046875 -16.335938 15.9375 -16.191406 15.8125 -16.015625 C 15.5 -15.566406 15.304688 -14.960938 15.234375 -14.203125 C 15.160156 -13.441406 14.910156 -12.8125 14.484375 -12.3125 C 14.066406 -11.820312 13.546875 -11.546875 12.921875 -11.484375 C 14.066406 -11.109375 14.816406 -10.300781 15.171875 -9.0625 C 15.367188 -8.351562 15.53125 -7.363281 15.65625 -6.09375 C 15.78125 -4.832031 15.898438 -3.898438 16.015625 -3.296875 C 16.285156 -1.921875 16.890625 -0.929688 17.828125 -0.328125 C 16.992188 0.515625 15.898438 0.9375 14.546875 0.9375 C 13.796875 0.9375 13.164062 0.726562 12.65625 0.3125 C 12.15625 -0.09375 11.789062 -0.617188 11.5625 -1.265625 C 11.34375 -1.921875 11.171875 -2.640625 11.046875 -3.421875 C 10.921875 -4.203125 10.832031 -4.984375 10.78125 -5.765625 C 10.726562 -6.554688 10.660156 -7.273438 10.578125 -7.921875 C 10.359375 -9.390625 9.863281 -10.125 9.09375 -10.125 L 7.140625 -10.125 L 7.140625 -5.609375 C 7.140625 -4.179688 7.253906 -3.082031 7.484375 -2.3125 C 7.710938 -1.539062 8.132812 -0.816406 8.75 -0.140625 C 8.75 0.210938 8.484375 0.472656 7.953125 0.640625 C 7.734375 0.703125 7.484375 0.734375 7.203125 0.734375 C 6.929688 0.734375 6.660156 0.675781 6.390625 0.5625 C 6.117188 0.457031 5.890625 0.332031 5.703125 0.1875 C 5.316406 -0.113281 5.015625 -0.441406 4.796875 -0.796875 Z M 10.484375 -18.96875 C 10.484375 -19.21875 10.34375 -19.445312 10.0625 -19.65625 C 9.78125 -19.875 9.429688 -19.984375 9.015625 -19.984375 C 8.609375 -19.984375 8.191406 -19.90625 7.765625 -19.75 C 7.347656 -19.59375 7.140625 -19.425781 7.140625 -19.25 L 7.140625 -12.390625 C 8.285156 -12.390625 9.128906 -12.519531 9.671875 -12.78125 C 10.210938 -13.039062 10.484375 -13.457031 10.484375 -14.03125 Z M 10.484375 -18.96875 "/></g></g></g><g fill="#000000" fill-opacity="1"><g transform="translate(102.539316, 41.821392)"><g><path d="M 10.953125 -17.734375 C 10.953125 -19.234375 10.359375 -19.984375 9.171875 -19.984375 C 8.128906 -19.984375 7.5 -19.640625 7.28125 -18.953125 C 7.1875 -18.648438 7.140625 -18.148438 7.140625 -17.453125 C 7.140625 -16.765625 7.15625 -16.0625 7.1875 -15.34375 C 7.226562 -14.625 7.28125 -14.050781 7.34375 -13.625 C 7.414062 -13.207031 7.488281 -12.847656 7.5625 -12.546875 C 7.644531 -12.253906 7.722656 -12.035156 7.796875 -11.890625 C 7.878906 -11.742188 7.957031 -11.617188 8.03125 -11.515625 C 8.175781 -11.304688 8.25 -11.144531 8.25 -11.03125 C 8.25 -10.925781 8.1875 -10.785156 8.0625 -10.609375 C 7.945312 -10.441406 7.820312 -10.21875 7.6875 -9.9375 C 7.320312 -9.1875 7.140625 -7.628906 7.140625 -5.265625 C 7.140625 -3.804688 7.285156 -2.894531 7.578125 -2.53125 C 7.890625 -2.144531 8.378906 -1.953125 9.046875 -1.953125 C 9.691406 -1.953125 10.109375 -2.050781 10.296875 -2.25 C 10.492188 -2.457031 10.628906 -2.628906 10.703125 -2.765625 C 10.785156 -2.910156 10.84375 -3.132812 10.875 -3.4375 C 10.925781 -3.863281 10.953125 -4.457031 10.953125 -5.21875 L 10.953125 -5.40625 C 10.953125 -7.71875 10.769531 -9.238281 10.40625 -9.96875 C 10.257812 -10.226562 10.128906 -10.445312 10.015625 -10.625 C 9.898438 -10.800781 9.84375 -10.941406 9.84375 -11.046875 C 9.84375 -11.148438 9.878906 -11.25 9.953125 -11.34375 C 10.035156 -11.445312 10.128906 -11.601562 10.234375 -11.8125 C 10.347656 -12.019531 10.457031 -12.316406 10.5625 -12.703125 C 10.820312 -13.617188 10.953125 -15.296875 10.953125 -17.734375 Z M 0.859375 -0.140625 C 2.035156 -1.234375 2.625 -2.957031 2.625 -5.3125 C 2.625 -7.34375 2.4375 -8.753906 2.0625 -9.546875 C 1.820312 -10.054688 1.585938 -10.40625 1.359375 -10.59375 C 1.140625 -10.789062 1.03125 -10.9375 1.03125 -11.03125 C 1.03125 -11.125 1.082031 -11.222656 1.1875 -11.328125 C 1.300781 -11.429688 1.4375 -11.578125 1.59375 -11.765625 C 1.75 -11.960938 1.90625 -12.234375 2.0625 -12.578125 C 2.4375 -13.398438 2.625 -14.648438 2.625 -16.328125 C 2.625 -18.015625 2.492188 -19.207031 2.234375 -19.90625 C 1.972656 -20.601562 1.515625 -21.265625 0.859375 -21.890625 C 0.859375 -22.242188 1.125 -22.5 1.65625 -22.65625 C 1.875 -22.71875 2.171875 -22.75 2.546875 -22.75 C 2.921875 -22.75 3.320312 -22.625 3.75 -22.375 C 4.1875 -22.132812 4.5 -21.894531 4.6875 -21.65625 L 4.984375 -21.296875 C 5.835938 -22.265625 7.46875 -22.75 9.875 -22.75 C 11.695312 -22.75 13.070312 -22.320312 14 -21.46875 C 15.175781 -20.375 15.765625 -18.6875 15.765625 -16.40625 C 15.765625 -13.800781 16.140625 -12.097656 16.890625 -11.296875 C 16.984375 -11.203125 17.03125 -11.109375 17.03125 -11.015625 C 17.03125 -10.929688 16.984375 -10.84375 16.890625 -10.75 C 16.804688 -10.664062 16.703125 -10.523438 16.578125 -10.328125 C 16.460938 -10.128906 16.335938 -9.867188 16.203125 -9.546875 C 15.910156 -8.753906 15.765625 -7.363281 15.765625 -5.375 C 15.765625 -3.382812 15.25 -1.867188 14.21875 -0.828125 C 13.195312 0.210938 11.785156 0.734375 9.984375 0.734375 C 7.597656 0.734375 5.929688 0.171875 4.984375 -0.953125 C 4.566406 -0.242188 4 0.253906 3.28125 0.546875 C 2.988281 0.671875 2.65625 0.734375 2.28125 0.734375 C 1.914062 0.734375 1.601562 0.660156 1.34375 0.515625 C 1.09375 0.367188 0.953125 0.222656 0.921875 0.078125 Z M 0.859375 -0.140625 "/></g></g></g><g fill="#000000" fill-opacity="1"><g transform="translate(120.179182, 41.821392)"><g><path d="M 2.390625 -22.75 C 3.335938 -22.75 4.140625 -22.238281 4.796875 -21.21875 C 4.816406 -21.257812 4.847656 -21.3125 4.890625 -21.375 C 4.941406 -21.445312 5.046875 -21.570312 5.203125 -21.75 C 5.367188 -21.925781 5.535156 -22.082031 5.703125 -22.21875 C 6.160156 -22.570312 6.628906 -22.75 7.109375 -22.75 C 7.597656 -22.75 7.972656 -22.675781 8.234375 -22.53125 C 8.492188 -22.382812 8.644531 -22.242188 8.6875 -22.109375 L 8.734375 -21.890625 C 8.066406 -21.242188 7.601562 -20.5625 7.34375 -19.84375 C 7.09375 -19.125 6.96875 -18.207031 6.96875 -17.09375 C 6.96875 -15.976562 7.003906 -15.09375 7.078125 -14.4375 C 7.160156 -13.78125 7.257812 -13.273438 7.375 -12.921875 C 7.5 -12.578125 7.628906 -12.285156 7.765625 -12.046875 C 7.910156 -11.804688 8.039062 -11.644531 8.15625 -11.5625 C 8.425781 -11.34375 8.5625 -11.175781 8.5625 -11.0625 C 8.5625 -10.957031 8.507812 -10.859375 8.40625 -10.765625 C 8.300781 -10.671875 8.171875 -10.523438 8.015625 -10.328125 C 7.859375 -10.128906 7.703125 -9.867188 7.546875 -9.546875 C 7.160156 -8.785156 6.96875 -7.585938 6.96875 -5.953125 C 6.96875 -4.328125 7.09375 -3.125 7.34375 -2.34375 C 7.601562 -1.5625 8.066406 -0.828125 8.734375 -0.140625 C 8.734375 0.203125 8.460938 0.460938 7.921875 0.640625 C 7.722656 0.703125 7.441406 0.734375 7.078125 0.734375 C 6.710938 0.734375 6.328125 0.59375 5.921875 0.3125 C 5.523438 0.03125 5.238281 -0.25 5.0625 -0.53125 L 4.796875 -0.953125 C 4.753906 -0.847656 4.632812 -0.675781 4.4375 -0.4375 C 4.25 -0.195312 4.066406 -0.00390625 3.890625 0.140625 C 3.421875 0.535156 2.984375 0.734375 2.578125 0.734375 C 2.179688 0.734375 1.878906 0.703125 1.671875 0.640625 C 1.472656 0.578125 1.320312 0.503906 1.21875 0.421875 C 1.007812 0.222656 0.890625 0.0351562 0.859375 -0.140625 C 1.523438 -0.828125 1.984375 -1.5625 2.234375 -2.34375 C 2.492188 -3.125 2.625 -4.101562 2.625 -5.28125 C 2.625 -6.457031 2.566406 -7.378906 2.453125 -8.046875 C 2.347656 -8.722656 2.21875 -9.222656 2.0625 -9.546875 C 1.90625 -9.867188 1.75 -10.128906 1.59375 -10.328125 C 1.4375 -10.523438 1.300781 -10.671875 1.1875 -10.765625 C 1.082031 -10.859375 1.03125 -10.945312 1.03125 -11.03125 C 1.03125 -11.125 1.082031 -11.21875 1.1875 -11.3125 C 1.300781 -11.414062 1.4375 -11.554688 1.59375 -11.734375 C 1.75 -11.921875 1.90625 -12.179688 2.0625 -12.515625 C 2.4375 -13.296875 2.625 -14.53125 2.625 -16.21875 C 2.625 -17.914062 2.492188 -19.125 2.234375 -19.84375 C 1.984375 -20.5625 1.523438 -21.242188 0.859375 -21.890625 C 0.859375 -22.242188 1.125 -22.5 1.65625 -22.65625 C 1.875 -22.71875 2.117188 -22.75 2.390625 -22.75 Z M 2.390625 -22.75 "/></g></g></g><g fill="#000000" fill-opacity="1"><g transform="translate(129.865819, 41.821392)"><g><path d="M 14.28125 -0.796875 C 13.769531 0.222656 12.988281 0.734375 11.9375 0.734375 C 11.382812 0.734375 11.007812 0.664062 10.8125 0.53125 C 10.5 0.289062 10.296875 0.0703125 10.203125 -0.125 C 10.816406 -0.863281 11.125 -1.800781 11.125 -2.9375 C 11.125 -3.914062 11.054688 -4.632812 10.921875 -5.09375 C 10.796875 -5.550781 10.648438 -6.054688 10.484375 -6.609375 C 10.328125 -7.160156 10.179688 -7.703125 10.046875 -8.234375 L 9.953125 -8.234375 L 6.609375 -8.21875 C 6.554688 -7.96875 6.457031 -7.5625 6.3125 -7 C 6.164062 -6.4375 6.0625 -6.007812 6 -5.71875 C 5.800781 -4.863281 5.703125 -4.023438 5.703125 -3.203125 C 5.703125 -1.953125 6.054688 -0.925781 6.765625 -0.125 C 6.765625 -0.113281 6.757812 -0.0859375 6.75 -0.046875 C 6.738281 -0.00390625 6.703125 0.0664062 6.640625 0.171875 C 6.578125 0.273438 6.503906 0.363281 6.421875 0.4375 C 6.210938 0.632812 5.953125 0.734375 5.640625 0.734375 C 5.335938 0.734375 5.070312 0.675781 4.84375 0.5625 C 4.613281 0.457031 4.4375 0.332031 4.3125 0.1875 C 4.019531 -0.125 3.820312 -0.453125 3.71875 -0.796875 C 3.3125 -0.398438 2.820312 -0.046875 2.25 0.265625 C 1.675781 0.578125 1.179688 0.734375 0.765625 0.734375 C 0.0859375 0.734375 -0.25 0.476562 -0.25 -0.03125 L -0.25 -0.125 C 0.550781 -0.757812 1.160156 -1.429688 1.578125 -2.140625 C 1.992188 -2.859375 2.394531 -3.910156 2.78125 -5.296875 L 3.546875 -7.96875 C 2.953125 -7.820312 2.421875 -7.566406 1.953125 -7.203125 C 1.859375 -7.203125 1.769531 -7.273438 1.6875 -7.421875 C 1.601562 -7.566406 1.5625 -7.742188 1.5625 -7.953125 C 1.5625 -8.410156 1.898438 -8.8125 2.578125 -9.15625 C 2.398438 -9.21875 2.222656 -9.34375 2.046875 -9.53125 C 1.722656 -9.84375 1.5625 -10.101562 1.5625 -10.3125 C 1.5625 -10.519531 1.570312 -10.675781 1.59375 -10.78125 C 1.625 -10.882812 1.65625 -10.960938 1.6875 -11.015625 C 1.769531 -11.109375 1.859375 -11.164062 1.953125 -11.1875 C 2.554688 -10.71875 3.300781 -10.421875 4.1875 -10.296875 L 5.890625 -16.265625 C 6.265625 -17.609375 6.453125 -18.675781 6.453125 -19.46875 C 6.453125 -20.269531 6.195312 -21.070312 5.6875 -21.875 L 5.6875 -21.9375 C 5.6875 -22.476562 6.234375 -22.75 7.328125 -22.75 C 7.890625 -22.75 8.5 -22.390625 9.15625 -21.671875 C 9.300781 -21.503906 9.453125 -21.304688 9.609375 -21.078125 C 9.890625 -21.765625 10.441406 -22.265625 11.265625 -22.578125 C 11.609375 -22.691406 11.941406 -22.75 12.265625 -22.75 C 12.597656 -22.75 12.851562 -22.675781 13.03125 -22.53125 C 13.207031 -22.382812 13.332031 -22.164062 13.40625 -21.875 C 13.125 -21.0625 12.984375 -20.128906 12.984375 -19.078125 C 12.984375 -18.035156 13.070312 -17.109375 13.25 -16.296875 C 13.425781 -15.484375 13.644531 -14.71875 13.90625 -14 C 14.175781 -13.289062 14.429688 -12.769531 14.671875 -12.4375 C 14.910156 -12.101562 15.128906 -11.84375 15.328125 -11.65625 C 15.535156 -11.46875 15.695312 -11.328125 15.8125 -11.234375 C 15.9375 -11.140625 16 -11.050781 16 -10.96875 C 16 -10.882812 15.957031 -10.789062 15.875 -10.6875 C 15.800781 -10.582031 15.71875 -10.476562 15.625 -10.375 C 15.375 -10.082031 15.25 -9.5 15.25 -8.625 C 15.25 -6.976562 15.585938 -5.34375 16.265625 -3.71875 C 16.941406 -2.09375 17.734375 -0.894531 18.640625 -0.125 L 18.640625 -0.078125 C 18.640625 0.460938 18.15625 0.734375 17.1875 0.734375 C 16.226562 0.734375 15.257812 0.222656 14.28125 -0.796875 Z M 9.578125 -10.171875 C 8.796875 -13.347656 8.378906 -15.070312 8.328125 -15.34375 C 7.921875 -13.695312 7.503906 -11.972656 7.078125 -10.171875 C 7.578125 -10.171875 8.113281 -10.171875 8.6875 -10.171875 Z M 9.578125 -10.171875 "/></g></g></g><g fill="#000000" fill-opacity="1"><g transform="translate(148.234003, 41.821392)"><g><path d="M 4.8125 -0.953125 C 4.132812 0.171875 3.332031 0.734375 2.40625 0.734375 C 1.96875 0.734375 1.617188 0.660156 1.359375 0.515625 C 1.097656 0.367188 0.953125 0.222656 0.921875 0.078125 L 0.859375 -0.140625 C 1.523438 -0.796875 1.984375 -1.5 2.234375 -2.25 C 2.492188 -3 2.625 -3.957031 2.625 -5.125 C 2.625 -6.300781 2.566406 -7.238281 2.453125 -7.9375 C 2.347656 -8.632812 2.21875 -9.148438 2.0625 -9.484375 C 1.90625 -9.828125 1.75 -10.097656 1.59375 -10.296875 C 1.4375 -10.503906 1.300781 -10.65625 1.1875 -10.75 C 1.082031 -10.84375 1.03125 -10.9375 1.03125 -11.03125 C 1.03125 -11.125 1.082031 -11.21875 1.1875 -11.3125 C 1.300781 -11.414062 1.4375 -11.554688 1.59375 -11.734375 C 1.75 -11.921875 1.90625 -12.179688 2.0625 -12.515625 C 2.4375 -13.296875 2.625 -14.53125 2.625 -16.21875 C 2.625 -17.914062 2.492188 -19.125 2.234375 -19.84375 C 1.984375 -20.5625 1.523438 -21.242188 0.859375 -21.890625 C 0.859375 -22.234375 1.128906 -22.488281 1.671875 -22.65625 C 1.878906 -22.71875 2.125 -22.75 2.40625 -22.75 C 3.351562 -22.75 4.15625 -22.238281 4.8125 -21.21875 C 4.851562 -21.3125 4.96875 -21.46875 5.15625 -21.6875 C 5.351562 -21.90625 5.535156 -22.082031 5.703125 -22.21875 C 6.179688 -22.570312 6.660156 -22.75 7.140625 -22.75 C 7.617188 -22.75 7.984375 -22.675781 8.234375 -22.53125 C 8.492188 -22.382812 8.644531 -22.242188 8.6875 -22.109375 L 8.734375 -21.890625 C 8.140625 -21.410156 7.710938 -20.898438 7.453125 -20.359375 C 7.203125 -19.828125 7.046875 -19.113281 6.984375 -18.21875 L 11.71875 -10.796875 C 12.03125 -11.734375 12.1875 -13.707031 12.1875 -16.71875 C 12.1875 -18.082031 12.0625 -19.125 11.8125 -19.84375 C 11.5625 -20.5625 11.097656 -21.242188 10.421875 -21.890625 C 10.421875 -22.242188 10.695312 -22.5 11.25 -22.65625 C 11.445312 -22.71875 11.679688 -22.75 11.953125 -22.75 C 12.910156 -22.75 13.710938 -22.238281 14.359375 -21.21875 C 14.390625 -21.257812 14.425781 -21.3125 14.46875 -21.375 C 14.507812 -21.445312 14.609375 -21.570312 14.765625 -21.75 C 14.929688 -21.925781 15.097656 -22.082031 15.265625 -22.21875 C 15.734375 -22.570312 16.207031 -22.75 16.6875 -22.75 C 17.175781 -22.75 17.546875 -22.675781 17.796875 -22.53125 C 18.054688 -22.382812 18.207031 -22.242188 18.25 -22.109375 L 18.3125 -21.890625 C 17.632812 -21.242188 17.171875 -20.5625 16.921875 -19.84375 C 16.671875 -19.125 16.546875 -18.164062 16.546875 -16.96875 C 16.546875 -15.769531 16.597656 -14.804688 16.703125 -14.078125 C 16.804688 -13.359375 16.9375 -12.832031 17.09375 -12.5 C 17.25 -12.175781 17.40625 -11.921875 17.5625 -11.734375 C 17.726562 -11.554688 17.863281 -11.414062 17.96875 -11.3125 C 18.082031 -11.21875 18.140625 -11.125 18.140625 -11.03125 C 18.140625 -10.9375 18.082031 -10.84375 17.96875 -10.75 C 17.863281 -10.65625 17.726562 -10.503906 17.5625 -10.296875 C 17.40625 -10.097656 17.25 -9.832031 17.09375 -9.5 C 16.726562 -8.6875 16.546875 -7.457031 16.546875 -5.8125 C 16.546875 -4.175781 16.671875 -2.984375 16.921875 -2.234375 C 17.171875 -1.492188 17.632812 -0.796875 18.3125 -0.140625 C 18.3125 0.203125 18.035156 0.460938 17.484375 0.640625 C 17.285156 0.703125 17.003906 0.734375 16.640625 0.734375 C 16.273438 0.734375 15.894531 0.59375 15.5 0.3125 C 15.101562 0.03125 14.8125 -0.25 14.625 -0.53125 L 14.359375 -0.953125 C 14.316406 -0.847656 14.195312 -0.675781 14 -0.4375 C 13.8125 -0.195312 13.628906 -0.00390625 13.453125 0.140625 C 12.992188 0.535156 12.5625 0.734375 12.15625 0.734375 C 11.75 0.734375 11.441406 0.703125 11.234375 0.640625 C 11.035156 0.578125 10.882812 0.503906 10.78125 0.421875 C 10.582031 0.242188 10.460938 0.0546875 10.421875 -0.140625 C 10.992188 -0.660156 11.410156 -1.210938 11.671875 -1.796875 C 11.929688 -2.390625 12.09375 -3.171875 12.15625 -4.140625 L 7.0625 -11.375 C 7 -10.175781 6.96875 -8.539062 6.96875 -6.46875 C 6.96875 -4.40625 7.09375 -3 7.34375 -2.25 C 7.601562 -1.5 8.066406 -0.796875 8.734375 -0.140625 C 8.734375 0.210938 8.460938 0.472656 7.921875 0.640625 C 7.722656 0.703125 7.484375 0.734375 7.203125 0.734375 C 6.253906 0.734375 5.457031 0.171875 4.8125 -0.953125 Z M 4.8125 -0.953125 "/></g></g></g><g fill="#000000" fill-opacity="1"><g transform="translate(167.494732, 41.847623)"><g><path d="M 3.101562 0.328125 C 4.355469 0.328125 5.042969 -0.449219 5.28125 -1.253906 C 5.519531 -2.117188 4.984375 -3.339844 3.640625 -3.339844 C 2.535156 -3.339844 1.699219 -2.625 1.460938 -1.789062 C 1.164062 -0.867188 1.820312 0.328125 3.101562 0.328125 Z M 3.101562 0.328125 "/></g></g></g><g fill="#000000" fill-opacity="1"><g transform="translate(176.085024, 41.847623)"><g><path d="M 15.84375 -10.234375 C 13.308594 -6.742188 8.503906 -5.519531 5.3125 -6.742188 L 5.339844 -6.832031 C 11.367188 -10.144531 16.796875 -15.992188 16.796875 -20.347656 C 16.796875 -21.960938 15.066406 -23.601562 13.308594 -23.601562 C 11.695312 -23.601562 10.59375 -22.554688 9.546875 -20.527344 C 7.339844 -16.320312 -2.117188 2.65625 -4.503906 6.652344 C -5.25 7.90625 -2.625 9.101562 -2.148438 8.027344 C -0.894531 5.339844 1.820312 0.0585938 4.566406 -5.339844 C 8.832031 -4.085938 13.933594 -5.398438 16.859375 -9.636719 Z M 12.023438 -19.484375 C 12.679688 -20.617188 13.394531 -21.332031 14.113281 -21.332031 C 14.769531 -21.332031 15.007812 -20.976562 15.007812 -20.109375 C 15.007812 -16.679688 11.070312 -11.996094 6.445312 -8.980469 C 9.308594 -14.46875 10.890625 -17.453125 12.023438 -19.484375 Z M 12.023438 -19.484375 "/></g></g></g><g fill="#000000" fill-opacity="1"><g transform="translate(187.329953, 41.847623)"><g><path d="M 30.34375 -10.234375 C 26.464844 -4.742188 22.316406 -1.671875 21.183594 -1.671875 C 20.886719 -1.671875 20.734375 -2 20.914062 -2.386719 C 22.167969 -4.953125 22.914062 -6.265625 25.988281 -11.636719 C 26.851562 -13.15625 25.359375 -15.214844 23.570312 -15.214844 C 21.480469 -15.214844 18.4375 -12.738281 16.351562 -10.292969 C 16.558594 -10.652344 16.796875 -11.007812 17.035156 -11.398438 C 18.019531 -13.097656 16.738281 -15.214844 14.828125 -15.214844 C 12.949219 -15.214844 9.667969 -12.800781 7.128906 -9.667969 L 9.039062 -13.066406 C 9.726562 -14.292969 6.980469 -15.542969 6.503906 -14.5 C 4.683594 -10.652344 2.179688 -5.699219 -0.121094 -1.851562 C -0.894531 -0.597656 1.910156 0.597656 2.417969 -0.449219 L 3.757812 -3.253906 C 7.191406 -9.398438 11.636719 -12.679688 13.097656 -12.679688 C 13.84375 -12.679688 14.054688 -12.023438 13.664062 -11.1875 C 12.769531 -9.039062 9.816406 -3.789062 8.652344 -1.851562 C 7.90625 -0.597656 10.59375 0.625 11.070312 -0.449219 L 12.234375 -2.984375 C 16.289062 -9.816406 20.378906 -12.679688 21.808594 -12.679688 C 22.554688 -12.679688 22.707031 -12.023438 22.378906 -11.21875 C 21.839844 -9.785156 18.617188 -3.847656 17.902344 -2.535156 C 17.1875 -1.164062 18.558594 0.296875 20.078125 0.296875 C 22.554688 0.296875 27.152344 -3.640625 31.359375 -9.636719 Z M 30.34375 -10.234375 "/></g></g></g></svg>